SplineFontDB: 3.0
FontName: Montchauve
FullName: Montchauve
FamilyName: Montchauve
Weight: Medium
Copyright: Created by Frank ADEBIAYE with FontForge 2.0 (http://fontforge.sf.net)\nLicence SIL OFL v. 1.1
UComments: "2011-4-16: Created." 
Version: 001.000
ItalicAngle: 0
UnderlinePosition: -100
UnderlineWidth: 50
Ascent: 800
Descent: 200
LayerCount: 2
Layer: 0 0 "Back"  1
Layer: 1 0 "Fore"  0
NeedsXUIDChange: 1
XUID: [1021 32 261939104 4887082]
FSType: 0
OS2Version: 0
OS2_WeightWidthSlopeOnly: 0
OS2_UseTypoMetrics: 1
CreationTime: 1302933308
ModificationTime: 1302934315
OS2TypoAscent: 0
OS2TypoAOffset: 1
OS2TypoDescent: 0
OS2TypoDOffset: 1
OS2TypoLinegap: 90
OS2WinAscent: 0
OS2WinAOffset: 1
OS2WinDescent: 0
OS2WinDOffset: 1
HheadAscent: 0
HheadAOffset: 1
HheadDescent: 0
HheadDOffset: 1
DEI: 91125
Encoding: UnicodeBmp
UnicodeInterp: none
NameList: Adobe Glyph List
DisplaySize: -24
AntiAlias: 1
FitToEm: 1
WinInfo: 0 30 16
BeginChars: 65536 53

StartChar: A
Encoding: 65 65 0
Width: 603
VWidth: 0
Flags: W
HStem: -1.50488 21G<553.096 584.995> -1 21G<16.8701 27.6699> 281.734 2.5<146.13 159 196.755 229.37 267.38 300.25 338.12 371.01 409 441.245 467.495 584.995> 653.495 20G<291.835 301.5 301.5 302.75>
VStem: 229.37 38.0098<284.234 322.646> 300.25 37.8701<284.234 361.116> 371.01 37.9902<284.234 309.823>
LayerCount: 2
Fore
SplineSet
300.25 673.495 m 5x7e
 301.5 672.984 l 5
 302.635 673.495 l 5
 302.75 673.125 l 5
 302.75 672.984 l 5
 466.5 284.234 l 5
 584.995 284.234 l 5
 584.995 281.734 l 5
 467.495 281.734 l 5
 586.13 0 l 5
 584.995 -0.510742 l 5
 584.37 -1.50488 l 5xbe
 141.245 281.875 l 5
 142.01 282.984 l 5
 142.01 284.234 l 5
 159 284.234 l 5
 282.75 625.25 l 5
 19.2549 -1 l 5
 16.8701 0 l 5
 300.25 673.495 l 5x7e
300.25 645.25 m 5
 267.38 284.234 l 5
 300.25 284.234 l 5
 300.25 645.25 l 5
305.25 645.25 m 5
 338.12 284.234 l 5
 371.01 284.234 l 5
 305.25 645.25 l 5
295.135 645.114 m 5
 196.755 284.234 l 5
 229.37 284.234 l 5
 295.135 645.114 l 5
310.62 643.864 m 5
 409 284.234 l 5
 441.245 284.234 l 5
 310.62 643.864 l 5
146.13 281.734 m 5
 582.26 2.75 l 5
 464.76 281.734 l 5
 146.13 281.734 l 5
146.13 281.734 m 4
EndSplineSet
Validated: 524289
EndChar

StartChar: B
Encoding: 66 66 1
Width: 466
VWidth: 0
Flags: W
HStem: -1.25 2.5<48.2451 267.603> 106.5 1.25<188.496 189.744 222.755 224.004> 335.25 2.5<189.744 222.755 225.255 267.603> 565.738 1.25195<188.496 189.744 222.755 224.004> 672.245 2.5<48.2451 267.603>
VStem: 45.7451 2.5<1.25 672.245> 98.749 90.9951<189.612 306.779 366.431 483.673> 187.244 2.5<107.75 158.24 515.25 565.738> 222.755 2.5<106.5 335.25 337.75 566.99> 222.755 1.24902<106.5 107.75 565.738 566.99> 417.755 2.5<151.552 186.983 486.419 521.942>
LayerCount: 2
Fore
SplineSet
224.004 107.75 m 5xfc60
 224.004 105.25 l 5
 188.496 105.25 l 5
 188.496 107.75 l 5
 224.004 107.75 l 5xfc60
224.004 568.238 m 5
 224.004 565.738 l 5
 188.496 565.738 l 5
 188.496 568.238 l 5
 224.004 568.238 l 5
46.9951 674.745 m 5
 259.495 674.745 l 5
 259.495 674.49 l 5
 349.005 669.82 420.255 595.66 420.255 505 c 4
 420.255 418.086 354.765 346.405 270.51 336.5 c 5
 354.765 326.6 420.255 254.961 420.255 168.495 c 4
 420.255 77.8301 349.005 3.66992 259.495 -1 c 5
 259.495 -1.25 l 5
 46.9951 -1.25 l 5
 46.9951 0 l 5
 45.7451 0 l 5
 45.7451 673.495 l 5
 46.9951 673.495 l 5
 46.9951 674.745 l 5
48.2451 672.245 m 5
 48.2451 1.25 l 5
 250.51 1.25 l 6
 342.835 1.25 417.755 76.1699 417.755 168.495 c 4
 417.755 260.311 342.835 335.25 250.51 335.25 c 6
 225.255 335.25 l 5
 225.255 106.5 l 5
 222.755 106.5 l 5
 222.755 335.25 l 5
 189.744 335.25 l 5
 189.744 106.5 l 5
 187.244 106.5 l 5
 187.244 158.24 l 5xfda0
 138.165 158.905 98.749 198.75 98.749 247.985 c 4
 98.749 291.68 129.724 327.891 170.994 335.995 c 5
 170.994 336.875 l 5
 129.724 345.096 98.749 381.814 98.749 425.485 c 4xfe20
 98.749 474.256 138.145 514.57 187.244 515.25 c 5
 187.244 566.99 l 5
 189.744 566.99 l 5
 189.744 337.75 l 5
 222.755 337.75 l 5
 222.755 566.99 l 5
 225.255 566.99 l 5
 225.255 337.75 l 5xfda0
 250.51 337.75 l 6
 342.835 337.75 417.755 412.676 417.755 505 c 4
 417.755 597.32 342.835 672.245 250.51 672.245 c 6
 48.2451 672.245 l 5
48.2451 672.245 m 4
EndSplineSet
Validated: 524293
EndChar

StartChar: C
Encoding: 67 67 2
Width: 419
VWidth: 0
Flags: W
HStem: -2.50098 2.5<341.838 367.51> 671.015 2.5<341.838 367.51>
VStem: 31.0049 2.5<309.466 361.109> 367.51 20.4854<-0.000976562 248.01 423.01 671.015>
LayerCount: 2
Fore
SplineSet
367.51 673.515 m 2
 387.995 673.515 l 1
 387.995 423.01 l 1
 367.51 423.01 l 1
 367.51 671.015 l 1
 183.25 670.334 33.5049 520.159 33.5049 335.254 c 0
 33.5049 150.859 183.25 0.68457 367.51 -0.000976562 c 1
 367.51 248.01 l 1
 387.995 248.01 l 1
 387.995 -2.50098 l 1
 368.76 -2.50098 l 2
 368.33 -2.50098 367.92 -2.50098 367.51 -2.50098 c 0
 181.9 -1.81543 31.0049 149.494 31.0049 335.254 c 0
 31.0049 521.504 181.9 672.834 367.51 673.515 c 2
367.51 673.515 m 0
EndSplineSet
Validated: 524289
EndChar

StartChar: D
Encoding: 68 68 3
Width: 514
VWidth: 0
Flags: W
HStem: 0 2.5<160.242 184.766> 673.495 2.5<160.242 184.761>
VStem: 122.252 73.4961<214.375 248.615 427.365 461.115> 157.742 2.5<2.5 212.5 462.99 673.495> 370.748 2.5<77.7549 599.06> 494.752 2.5<311.122 364.455>
LayerCount: 2
Fore
SplineSet
158.992 675.995 m 1xdc
 238.248 675.995 311.217 648.595 368.873 602.87 c 1
 371.258 604.745 l 1
 371.998 603.75 l 1
 373.248 603.75 l 1
 373.248 599.375 l 1
 448.912 537.305 497.252 443.164 497.252 337.755 c 0
 497.252 232.635 448.873 138.595 373.248 76.6201 c 1
 373.248 69.7451 l 1
 371.258 71.25 l 1
 368.873 73.125 l 1
 311.217 27.4395 238.268 0 158.992 0 c 1
 158.992 1.25 l 1
 157.742 1.25 l 1
 157.742 212.5 l 1xdc
 122.252 212.5 l 1
 122.252 248.615 l 1
 16.748 336.74 l 1
 17.5078 337.755 l 1
 16.748 338.75 l 1
 122.252 427.365 l 1
 122.252 462.99 l 1xec
 157.742 462.99 l 1
 157.742 674.745 l 1
 158.992 674.745 l 1
 158.992 675.995 l 1xdc
160.242 673.495 m 1
 160.242 462.99 l 1
 193.992 462.99 l 1
 366.883 601.25 l 1
 310.008 646.21 238.248 673.225 160.242 673.495 c 1
368.758 599.63 m 2
 195.748 461.115 l 1
 195.748 427.365 l 1
 301.883 338.75 l 1
 301.002 337.755 l 1
 301.883 336.74 l 1
 195.748 248.615 l 1
 195.748 214.375 l 1xec
 368.873 76.25 l 2
 369.498 76.7598 370.123 77.2451 370.748 77.7549 c 2
 370.748 598.125 l 2
 370.102 598.654 369.402 599.1 368.758 599.63 c 2
373.248 596.115 m 1
 373.248 79.7451 l 1
 447.408 141.27 494.752 234.14 494.752 337.755 c 0
 494.752 441.64 447.408 534.51 373.248 596.115 c 1
160.242 212.5 m 1xdc
 160.242 2.5 l 1
 238.268 2.77539 310.008 29.8447 366.883 74.7451 c 1
 194.248 212.5 l 1
 160.242 212.5 l 1xdc
160.242 212.5 m 0
EndSplineSet
Validated: 524289
EndChar

StartChar: E
Encoding: 69 69 4
Width: 515
VWidth: 0
Flags: W
HStem: -2.5 2.5<46.4453 364.18> 333.985 2.5<46.4453 364.18> 671 2.5<46.4453 364.18>
VStem: 43.9453 2.5<0 333.985 336.485 671>
LayerCount: 2
Fore
SplineSet
45.1953 673.5 m 5
 364.18 673.5 l 5
 364.18 671 l 5
 46.4453 671 l 5
 46.4453 336.485 l 5
 364.18 336.485 l 5
 364.18 333.985 l 5
 46.4453 333.985 l 5
 46.4453 0 l 5
 364.18 0 l 5
 364.18 -2.5 l 5
 45.1953 -2.5 l 5
 45.1953 -1.25 l 5
 43.9453 -1.25 l 5
 43.9453 672.25 l 5
 45.1953 672.25 l 5
 45.1953 673.5 l 5
364.939 425.235 m 5
 471.055 336.25 l 5
 470.195 335.235 l 5
 471.055 334.24 l 5
 364.939 245.745 l 5
 363.439 247.735 l 5
 460.939 329.24 l 5
 364.805 281.115 l 5
 363.689 283.245 l 5
 462.305 332.735 l 5
 364.436 316.625 l 5
 364.064 318.985 l 5
 462.93 335.375 l 5
 363.945 351.995 l 5
 364.436 354.375 l 5
 462.07 337.875 l 5
 363.689 387.735 l 5
 364.805 389.865 l 5
 460.564 341.625 l 5
 363.439 423.245 l 5
 364.939 425.235 l 5
364.939 425.235 m 4
EndSplineSet
Validated: 524289
EndChar

StartChar: F
Encoding: 70 70 5
Width: 514
VWidth: 0
Flags: W
HStem: 0 2.5<60.5576 81.7603> 354.004 2.5<301.873 343.633 348.518 379.768 384.998 453.755> 389.494 2.5<373.518 410.252 415.508 453.755> 425 37.9893<373.518 440.623 443.887 444.512> 425 2.49902<444.512 453.537> 725.999 2.5<125.508 443.262>
VStem: 16.502 2.64062<43.2452 52.9893> 123.008 2.5<43.9646 52.9893 58.8691 354.004 462.989 725.999> 494.998 2.5<398.223 479.239>
LayerCount: 2
Fore
SplineSet
124.258 728.499 m 5xf780
 443.262 728.499 l 5
 443.262 725.999 l 5
 125.508 725.999 l 5
 125.508 462.989 l 5
 444.512 462.989 l 5xf780
 444.512 427.499 l 5xef80
 472.732 428.164 494.998 451.329 494.998 479.239 c 5
 497.498 479.239 l 5
 497.498 449.979 474.102 425.664 444.512 425 c 4
 444.297 425 444.082 425 443.887 425 c 6
 415.508 391.994 l 5
 443.262 391.994 l 6
 472.068 391.994 494.998 415.409 494.998 444.239 c 5
 497.498 444.239 l 5
 497.498 414.084 473.438 389.494 443.262 389.494 c 6
 413.377 389.494 l 5
 384.998 356.504 l 5
 443.262 356.504 l 6
 472.068 356.504 494.998 379.904 494.998 408.75 c 5
 497.498 408.75 l 5
 497.498 378.574 473.438 354.004 443.262 354.004 c 6
 382.893 354.004 l 5
 125.877 54.375 l 5
 125.508 53.8691 l 5
 125.312 23.8691 100.803 0 71.248 0 c 4
 41.0918 0 16.502 24.0645 16.502 54.2393 c 5
 17.752 54.2393 l 5
 17.752 55.4893 l 5
 123.008 55.4893 l 5
 123.008 727.249 l 5
 124.258 727.249 l 5
 124.258 728.499 l 5xf780
373.518 425 m 5
 373.518 391.994 l 5
 412.383 391.994 l 5
 440.623 425 l 5
 373.518 425 l 5
301.248 389.494 m 5
 301.248 356.504 l 5
 345.508 356.504 l 5
 369.768 389.494 l 5
 301.248 389.494 l 5
372.893 389.494 m 5
 348.518 356.504 l 5
 381.873 356.504 l 5
 410.252 389.494 l 5
 372.893 389.494 l 5
125.508 354.004 m 5
 125.508 58.8691 l 5
 299.002 354.004 l 5
 125.508 354.004 l 5
301.873 354.004 m 5
 137.268 74.0039 l 5
 343.633 354.004 l 5
 301.873 354.004 l 5
346.758 354.004 m 5
 145.137 80.4893 l 5
 379.768 354.004 l 5
 346.758 354.004 l 5
19.1426 52.9893 m 5
 19.8027 24.7695 42.832 2.5 71.248 2.5 c 4
 99.1777 2.5 122.342 24.7695 123.008 52.9893 c 5
 19.1426 52.9893 l 5
19.1426 52.9893 m 4
EndSplineSet
Validated: 524289
EndChar

StartChar: G
Encoding: 71 71 6
Width: 492
VWidth: 0
Flags: W
HStem: -1.25 2.5<335.183 430.513> 282.246 2.5<361.161 377.872> 317.756 37.9844<289.263 336.508 339.498 430.748 433.248 468.752> 565.74 2.5<362.978 377.502> 671.756 2.5<334.994 359.888>
VStem: 23.248 2.5<310.594 362.389> 235.748 2.5<408.581 443.044> 430.748 2.5<13.6309 317.756>
LayerCount: 2
Fore
SplineSet
360.997 674.256 m 5
 360.997 673.006 l 5
 362.247 673.24 l 5
 380.258 567.131 l 5
 379.008 566.99 l 5
 379.008 565.74 l 5
 301.172 565.74 238.248 502.83 238.248 425 c 4
 238.248 354.92 289.888 296.66 357.502 286.365 c 5
 336.508 317.756 l 5
 289.263 317.756 l 5
 289.263 355.74 l 5
 468.752 355.74 l 5
 468.752 317.756 l 5
 433.248 317.756 l 5
 433.248 0 l 5
 431.998 0 l 5
 431.998 -1.25 l 5
 360.997 -1.25 l 6
 174.337 -1.25 23.248 149.826 23.248 336.506 c 4
 23.248 523.166 174.337 674.256 360.997 674.256 c 5
359.888 671.756 m 5
 175.082 671.131 25.748 521.445 25.748 336.506 c 4
 25.748 151.17 175.688 1.25 360.997 1.25 c 6
 430.513 1.25 l 5
 377.872 282.246 l 5
 372.172 282.285 366.547 282.811 360.997 283.496 c 6
 359.377 283.75 l 6
 289.498 293.28 235.748 352.931 235.748 425 c 4
 235.748 503.67 299.027 567.44 377.502 568.24 c 5
 359.888 671.756 l 5
339.498 317.756 m 5
 360.883 285.996 l 6
 366.817 285.235 372.852 284.746 379.008 284.746 c 5
 379.008 283.496 l 5
 380.258 283.75 l 5
 430.748 13.6309 l 5
 430.748 317.756 l 5
 339.498 317.756 l 5
339.498 317.756 m 4
EndSplineSet
Validated: 524289
EndChar

StartChar: H
Encoding: 72 72 7
Width: 583
VWidth: 0
Flags: W
HStem: -42.75 2.5<25.748 36.2551 121.73 132.252 451.258 461.612 546.75 557.252> 311.25 37.9893<397.764 502.992> 736.739 2.5<25.748 36.2495 121.73 132.252 451.258 461.606 546.75 557.252>
VStem: 77.5078 2.5<0.991333 311.25 349.609 695.016> 502.992 2.5<0.991333 311.25 349.239 695.016>
LayerCount: 2
Fore
SplineSet
25.748 739.239 m 5
 51.8828 739.239 73.4434 720.784 78.7578 696.25 c 5
 84.1484 720.819 106.104 739.239 132.252 739.239 c 5
 132.252 736.739 l 5
 103.422 736.739 80.0078 713.319 80.0078 684.495 c 6
 80.0078 349.609 l 5
 291.514 402.734 l 5
 291.742 401.484 l 5
 292.992 401.484 l 5
 292.992 349.239 l 5
 502.992 349.239 l 5
 502.992 684.495 l 6
 502.992 713.319 479.559 736.739 451.258 736.739 c 5
 451.258 739.239 l 5
 477.059 739.239 498.953 720.685 504.242 696 c 5
 509.457 720.665 531.023 739.239 557.252 739.239 c 5
 557.252 736.739 l 5
 528.422 736.739 505.492 713.319 505.492 684.495 c 6
 505.492 11.4844 l 6
 505.492 -17.3408 528.422 -40.25 557.252 -40.25 c 5
 557.252 -42.75 l 5
 531.043 -42.75 509.457 -24.5703 504.242 0 c 5
 498.953 -24.5703 477.037 -42.75 451.258 -42.75 c 5
 451.258 -40.25 l 5
 479.578 -40.25 502.992 -17.3203 502.992 11.4844 c 6
 502.992 311.25 l 5
 397.764 311.25 l 5
 292.252 276.25 l 5
 291.742 277.5 l 5
 290.492 277.5 l 5
 290.492 311.25 l 5
 80.0078 311.25 l 5
 80.0078 11.4844 l 6
 80.0078 -17.3203 103.422 -40.25 132.252 -40.25 c 5
 132.252 -42.75 l 5
 106.117 -42.75 84.1484 -24.7051 78.7578 -0.25 c 5
 73.4434 -24.6855 51.8633 -42.75 25.748 -42.75 c 5
 25.748 -40.25 l 5
 54.5977 -40.25 77.5078 -17.3408 77.5078 11.4844 c 6
 77.5078 684.495 l 6
 77.5078 713.319 54.5781 736.739 25.748 736.739 c 5
 25.748 739.239 l 5
25.748 739.239 m 4
EndSplineSet
Validated: 524289
EndChar

StartChar: I
Encoding: 73 73 8
Width: 245
VWidth: 0
Flags: W
HStem: -0.00292969 38.0059<50.2559 121.25 123.75 194.744> 673.003 2.5<51.5039 193.496>
VStem: 50.2559 144.488<-0.00292969 38.0029 638.003 675.503> 121.25 2.5<38.0029 213.747 355.737 638.003>
LayerCount: 2
Fore
SplineSet
193.496 0 m 1
 51.5039 0 l 1xc0
193.496 675.503 m 1
 193.496 673.003 l 1
 51.5039 673.003 l 1
 51.5039 675.503 l 1
 193.496 675.503 l 1
50.2559 675.503 m 1xe0
 194.744 675.503 l 1
 194.744 638.003 l 1xe0
 123.75 638.003 l 1
 123.75 355.737 l 1
 121.25 355.737 l 1
 121.25 638.003 l 1xd0
 50.2559 638.003 l 1
 50.2559 675.503 l 1xe0
52.5 356.753 m 1
 122.5 286.503 l 1
 192.621 356.753 l 1
 194.26 354.743 l 1
 123.381 283.862 l 1
 122.5 284.743 l 1
 121.619 283.862 l 1
 50.5098 354.743 l 1
 52.5 356.753 l 1
52.5 320.993 m 1
 122.5 250.993 l 1
 192.621 320.993 l 1
 194.26 319.372 l 1
 123.381 248.378 l 1
 122.5 249.253 l 1
 121.619 248.378 l 1
 50.5098 319.372 l 1
 52.5 320.993 l 1
121.25 213.747 m 1xd0
 123.75 213.747 l 1
 123.75 38.0029 l 1xd0
 194.744 38.0029 l 1
 194.744 -0.00292969 l 1
 50.2559 -0.00292969 l 1
 50.2559 38.0029 l 1xe0
 121.25 38.0029 l 1
 121.25 213.747 l 1xd0
121.25 213.747 m 0
EndSplineSet
Validated: 524299
EndChar

StartChar: J
Encoding: 74 74 9
Width: 392
VWidth: 0
Flags: W
HStem: 0 2.5<142.647 178.739> 35 2.5<145.831 175.541> 53.0059 2.5<147.24 174.137> 105.996 2.5<152.353 169.144> 176.99 2.5<152.353 169.144> 230 2.5<147.24 174.137> 248.006 2.5<145.831 175.541> 283.496 2.5<142.803 160.744> 300.996 2.5<181.121 195.242> 318.496 2.5<198.756 213.537> 655.506 37.5<230.006 301 303.5 374.494>
VStem: 17.5059 2.5<124.761 160.853> 52.9961 2.5<127.946 157.562> 71 2.5<129.249 156.26> 124.01 2.5<134.356 151.147> 195.006 2.5<134.356 151.147> 247.996 2.5<129.249 156.26> 265.496 2.5<127.946 157.562> 301 2.5<124.919 655.506> 319.01 2.5<163.125 178.474> 336.51 2.5<180.996 195.539>
LayerCount: 2
Fore
SplineSet
230.006 693.006 m 5
 231.256 693.006 l 5
 374.494 693.006 l 5
 374.494 655.506 l 5
 303.5 655.506 l 5
 303.5 272.381 l 5
 325.045 247.851 338.346 215.916 339.01 180.996 c 5
 354.381 196.756 l 5
 356.121 194.746 l 5
 321.121 159.375 l 5
 320.119 160.256 l 5
 319.01 160.256 l 5
 319.01 183.496 313.459 205.431 303.5 224.746 c 5
 303.5 142.756 l 6
 303.5 64.0605 239.439 0 160.744 0 c 4
 81.584 0 17.5059 64.0605 17.5059 142.756 c 4
 17.5059 221.916 81.584 285.996 160.744 285.996 c 5
 160.744 283.496 l 5
 82.9355 283.496 20.0059 220.565 20.0059 142.756 c 4
 20.0059 65.4307 82.9355 2.5 160.744 2.5 c 4
 238.07 2.5 301 65.4307 301 142.756 c 6
 301 229.375 l 5
 276.859 272.166 230.939 300.996 178.244 300.996 c 5
 178.244 302.131 l 5
 177.371 303.125 l 5
 212.76 338.496 l 5
 214.75 336.875 l 5
 198.756 320.996 l 5
 239.105 320.291 275.416 302.791 301 275.115 c 5
 301 655.506 l 5
 230.006 655.506 l 5
 230.006 693.006 l 5
195.26 338.496 m 5
 197.25 336.875 l 5
 161.51 301.365 l 5
 159.871 303.125 l 5
 195.26 338.496 l 5
196.256 318.496 m 5
 181.121 303.496 l 5
 231.975 302.5 276.369 275.096 301 234.375 c 5
 301 271.365 l 5
 275.279 300.271 237.855 318.496 196.256 318.496 c 5
303.5 268.496 m 5
 303.5 230 l 5
 314.555 210.155 321.02 187.346 321.51 163.125 c 5
 336.51 178.496 l 5
 336.449 212.771 324.064 244.121 303.5 268.496 c 5
160.744 250.506 m 4
 219.926 250.506 267.996 201.936 267.996 142.756 c 4
 267.996 83.5762 219.926 35 160.744 35 c 4
 101.08 35 52.9961 83.5762 52.9961 142.756 c 4
 52.9961 201.936 101.08 250.506 160.744 250.506 c 4
160.744 248.006 m 4
 102.426 248.006 55.4961 200.565 55.4961 142.756 c 4
 55.4961 84.9199 102.426 37.5 160.744 37.5 c 4
 218.561 37.5 265.496 84.9199 265.496 142.756 c 4
 265.496 200.565 218.561 248.006 160.744 248.006 c 4
160.744 232.5 m 4
 209.926 232.5 250.496 192.42 250.496 142.756 c 4
 250.496 93.0654 209.926 53.0059 160.744 53.0059 c 4
 111.08 53.0059 71 93.0859 71 142.756 c 4
 71 192.42 111.08 232.5 160.744 232.5 c 4
160.744 230 m 4
 112.426 230 73.5 191.076 73.5 142.756 c 4
 73.5 94.416 112.426 55.5059 160.744 55.5059 c 4
 208.58 55.5059 247.996 94.4355 247.996 142.756 c 4
 247.996 191.076 208.58 230 160.744 230 c 4
160.744 179.49 m 4
 180.939 179.49 197.506 162.931 197.506 142.756 c 4
 197.506 122.561 180.939 105.996 160.744 105.996 c 4
 140.57 105.996 124.01 122.561 124.01 142.756 c 4
 124.01 162.931 140.57 179.49 160.744 179.49 c 4
354.381 179.256 m 5
 356.121 177.246 l 5
 321.121 141.875 l 5
 319.381 143.496 l 5
 354.381 179.256 l 5
160.744 176.99 m 4
 141.939 176.99 126.51 161.561 126.51 142.756 c 4
 126.51 123.926 141.939 108.496 160.744 108.496 c 4
 179.574 108.496 195.006 123.926 195.006 142.756 c 4
 195.006 161.561 179.574 176.99 160.744 176.99 c 4
160.744 176.99 m 4
EndSplineSet
Validated: 524289
EndChar

StartChar: K
Encoding: 75 75 10
Width: 524
VWidth: 0
Flags: W
HStem: 0 21G<48.4336 50.9336 83.4336 85.9336 381.788 404.547> 653.003 20G<48.4336 50.9336 83.4336 85.9336 381.788 404.547>
VStem: 48.4336 2.5<0 673.003> 83.4336 2.5<0 283.491 390 673.003>
LayerCount: 2
Fore
SplineSet
85.9336 0 m 5
 83.4336 0 l 5
 83.4336 283.491 l 5
 85.9336 283.491 l 5
 85.9336 0 l 5
85.9336 390 m 5
 83.4336 390 l 5
 83.4336 673.003 l 5
 85.9336 673.003 l 5
 85.9336 390 l 5
404.57 -36.3965 m 5
 402.803 -34.6289 l 5
 473.799 36.3867 l 5
 475.566 34.6191 l 5
 404.57 -36.3965 l 5
475.562 638.892 m 5
 473.805 637.114 l 5
 402.809 707.603 l 5
 404.566 709.38 l 5
 475.562 638.892 l 5
475.566 603.384 m 5
 473.799 601.616 l 5
 367.314 707.607 l 5
 369.082 709.375 l 5
 475.566 603.384 l 5
369.082 -36.3965 m 5
 367.314 -34.6289 l 5
 473.799 71.875 l 5
 475.566 70.1074 l 5
 369.082 -36.3965 l 5
422.555 18.4082 m 5
 420.836 16.5918 l 5
 83.8242 335.596 l 5
 85.543 337.412 l 5
 422.555 18.4082 l 5
420.836 656.411 m 5
 422.555 654.595 l 5
 68.043 318.096 l 5
 66.3242 319.912 l 5
 420.836 656.411 l 5
404.547 0.908203 m 5
 402.828 -0.908203 l 5
 48.8242 335.596 l 5
 50.543 337.412 l 5
 404.547 0.908203 l 5
402.828 673.911 m 5
 404.547 672.095 l 5
 50.543 335.596 l 5
 48.8242 337.412 l 5
 402.828 673.911 l 5
50.9336 0 m 5
 48.4336 0 l 5
 48.4336 673.003 l 5
 50.9336 673.003 l 5
 50.9336 0 l 5
EndSplineSet
Validated: 524293
EndChar

StartChar: L
Encoding: 76 76 11
Width: 560
VWidth: 0
Flags: W
HStem: 0 73.4951<122.013 439.748> 655.995 20G<49.748 70.6237 85.252 120.763> 655.995 20G<49.748 70.6237 85.252 120.763>
VStem: 48.498 73.5146<73.4951 603.75>
LayerCount: 2
Fore
SplineSet
85.252 675.995 m 1xd0
 120.763 675.995 l 1
 120.763 674.745 l 1
 122.013 674.745 l 1
 122.013 639.255 l 1
 120.763 639.255 l 1
 119.883 638.38 l 1
 84.3721 673.865 l 1
 85.252 674.745 l 1
 85.252 675.995 l 1xd0
50.6221 675.625 m 1
 121.623 604.63 l 1
 120.622 603.75 l 1
 122.013 603.75 l 1
 122.013 73.4951 l 1
 439.748 73.4951 l 1
 439.748 72.1299 l 1
 440.622 73.125 l 1
 511.133 2.12988 l 1
 510.252 1.25 l 1
 510.252 0 l 1
 49.748 0 l 1
 49.748 1.25 l 1
 48.498 1.25 l 1
 48.498 674.745 l 1
 49.748 674.745 l 1
 50.6221 675.625 l 1
474.748 73.4951 m 1
 510.252 73.4951 l 1
 510.252 72.2451 l 1
 511.502 72.2451 l 1
 511.502 36.7549 l 1
 510.252 36.7549 l 1
 509.372 35.8799 l 1
 474.002 71.3652 l 1
 474.748 72.1299 l 1
 474.748 73.4951 l 1
474.748 73.4951 m 0
EndSplineSet
Validated: 524289
EndChar

StartChar: M
Encoding: 77 77 12
Width: 569
VWidth: 0
Flags: W
HStem: 0 38.0107<55.5049 513.495> 283.495 2.5<221.134 242.215 327.15 348.351> 336.506 2.5<125.255 176.99 179.49 231.755 337.755 337.755 391.99 444.255> 655.511 20G<54.2549 68.9303 500.104 514.745> 655.511 20G<54.2549 68.9303 500.104 514.745>
VStem: 53.0049 2.5<38.0107 670.761> 176.99 2.5<327.607 336.506> 283.495 2.5<327.097 337.386> 389.49 2.5<327.168 336.506> 513.495 2.5<38.0107 670.761>
LayerCount: 2
Fore
SplineSet
55.2549 675.511 m 5xf7c0
 284.745 339.886 l 5
 513.75 675.511 l 5
 514.745 674.745 l 5
 515.995 674.745 l 5
 515.995 0 l 5
 53.0049 0 l 5
 53.0049 674.745 l 5
 54.2549 674.745 l 5
 55.2549 675.511 l 5xf7c0
55.5049 670.761 m 5
 55.5049 38.0107 l 5
 513.495 38.0107 l 5
 513.495 670.761 l 5
 285.995 337.386 l 5
 286.21 309.221 309.06 285.995 337.755 285.995 c 4
 366.15 285.995 388.824 308.75 389.49 336.506 c 5
 337.755 336.506 l 5
 337.755 339.006 l 5
 444.255 339.006 l 5
 444.255 336.506 l 5
 391.99 336.506 l 5
 391.324 307.405 367.5 283.495 337.755 283.495 c 4
 311.525 283.495 289.96 302.051 284.745 326.386 c 5
 279.449 302.051 257.54 283.495 231.755 283.495 c 4
 201.99 283.495 177.675 307.386 176.99 336.506 c 5
 125.255 336.506 l 5
 125.255 339.006 l 5
 231.755 339.006 l 5
 231.755 336.506 l 5
 179.49 336.506 l 5
 180.175 308.771 203.359 285.995 231.755 285.995 c 4
 259.939 285.995 283.3 309.24 283.495 337.386 c 5
 55.5049 670.761 l 5
55.5049 670.761 m 4
EndSplineSet
Validated: 524289
EndChar

StartChar: N
Encoding: 78 78 13
Width: 499
VWidth: 0
Flags: W
HStem: -0.625 21G<431.791 444.5> 654.766 20G<372.234 445.75> 654.766 20G<54.25 67.1951 372.234 445.75>
VStem: 53.25 73.5<-1.25 497.266> 53.25 2.5<497.266 668.891> 372.234 73.5156<175.766 674.766> 443.25 2.5<4.76562 175.766>
LayerCount: 2
Fore
SplineSet
372.234 674.766 m 5xc4
 445.75 674.766 l 5xc4
 445.75 0 l 5
 444.5 0 l 5
 443.37 -0.625 l 5
 55.75 668.891 l 5
 55.75 497.266 l 5xca
 126.75 497.266 l 5
 126.75 -1.25 l 5
 53.25 -1.25 l 5xd0
 53.25 673.516 l 5
 54.25 673.516 l 5
 55.6152 674.261 l 5
 443.25 4.76562 l 5
 443.25 175.766 l 5xca
 372.234 175.766 l 5
 372.234 674.766 l 5xc4
372.234 674.766 m 4
EndSplineSet
Validated: 524289
EndChar

StartChar: O
Encoding: 79 79 14
Width: 400
VWidth: 0
Flags: W
HStem: -2.5 2.5<183.461 216.125> 33.0107 144.005<120 279.878> 493.516 144.495<120.055 279.774> 671.016 2.5<183.461 216.125>
VStem: 39.4922 2.5<142.097 158.266 512.755 528.923> 358.008 2.5<142.097 158.266 512.755 528.923>
LayerCount: 2
Fore
SplineSet
199.748 673.516 m 4
 288.928 673.516 360.508 601.426 360.508 512.755 c 5
 358.008 512.755 l 5
 358.008 600.08 287.578 671.016 199.748 671.016 c 4
 112.422 671.016 41.9922 600.08 41.9922 512.755 c 5
 39.4922 512.755 l 5
 39.4922 601.426 111.078 673.516 199.748 673.516 c 4
199.748 638.011 m 4
 288.928 638.011 360.508 565.94 360.508 477.266 c 5
 359.258 477.266 l 5
 360.002 476.391 l 5
 320.627 441.391 l 5
 345.492 413.05 360.508 375.88 360.508 335.255 c 4
 360.508 294.785 345.588 257.796 320.883 229.516 c 5
 360.002 194.63 l 5
 359.258 193.75 l 5
 360.508 193.75 l 5
 360.508 105.08 288.928 33.0107 199.748 33.0107 c 4
 111.078 33.0107 39.4922 105.08 39.4922 193.75 c 5
 40.7422 193.75 l 5
 39.8828 194.63 l 5
 79.0078 229.516 l 5
 54.3379 257.796 39.4922 294.785 39.4922 335.255 c 4
 39.4922 375.86 54.4375 413.05 79.2578 441.391 c 5
 39.8828 476.391 l 5
 40.7422 477.266 l 5
 39.4922 477.266 l 5
 39.4922 565.94 111.078 638.011 199.748 638.011 c 4
199.748 493.516 m 4
 153.303 493.516 111.602 473.46 82.7578 441.505 c 5
 200.002 337.13 l 5
 317.133 441.505 l 5
 288.223 473.46 246.467 493.516 199.748 493.516 c 4
200.002 333.75 m 5
 82.6172 229.261 l 5
 111.488 197.21 153.203 177.016 199.748 177.016 c 4
 246.602 177.016 288.477 197.171 317.383 229.261 c 5
 200.002 333.75 l 5
39.4922 158.266 m 5
 41.9922 158.266 l 5
 41.9922 70.9404 112.422 0 199.748 0 c 4
 287.578 0 358.008 70.9404 358.008 158.266 c 5
 360.508 158.266 l 5
 360.508 69.5908 288.928 -2.5 199.748 -2.5 c 4
 111.078 -2.5 39.4922 69.5908 39.4922 158.266 c 5
39.4922 158.266 m 4
EndSplineSet
Validated: 524289
EndChar

StartChar: P
Encoding: 80 80 15
Width: 532
VWidth: 0
Flags: W
HStem: -2.5 2.5<21.625 91.3701 130.26 199.125> 333.985 2.5<129.38 338.5 341.255 357.723> 671 2.5<21.625 91.3701 129.38 357.723>
VStem: 91.3701 38.0098<2.875 333.985 336.485 671> 507.875 2.5<486.55 520.885>
LayerCount: 2
Fore
SplineSet
21.625 673.5 m 5
 340.63 673.5 l 6
 434.3 673.5 510.375 596.915 510.375 503.75 c 4
 510.375 410.275 434.635 334.34 341.255 333.985 c 5
 130.26 0 l 5
 199.125 0 l 5
 199.125 -2.5 l 5
 21.625 -2.5 l 5
 21.625 0 l 5
 91.3701 0 l 5
 91.3701 671 l 5
 21.625 671 l 5
 21.625 673.5 l 5
129.38 671 m 5
 129.38 336.485 l 5
 340.63 336.485 l 6
 432.955 336.485 507.875 411.431 507.875 503.75 c 4
 507.875 595.57 432.955 671 340.63 671 c 6
 129.38 671 l 5
129.38 333.985 m 5
 129.38 2.875 l 5
 338.5 333.985 l 5
 129.38 333.985 l 5
129.38 333.985 m 4
EndSplineSet
Validated: 524289
EndChar

StartChar: Q
Encoding: 81 81 16
Width: 732
VWidth: 0
Flags: W
HStem: 0 2.5<339.834 391.534> 673.5 2.5<339.832 391.657>
VStem: 27.9922 2.5<311.827 363.65> 665.998 38.0098<57.1104 71.7402 92.3652 107.11 127.735 142.5 162.735 162.735> 701.508 2.5<308.889 363.65>
LayerCount: 2
Fore
SplineSet
365.742 676 m 4xf0
 552.423 676 704.008 524.415 704.008 337.735 c 4
 704.008 281 689.982 227.54 665.258 180.625 c 5
 667.248 179.495 l 5
 704.008 179.495 l 5
 704.008 1.25 l 5xe8
 702.758 1.25 l 5
 701.877 0.375 l 5
 666.623 35.4902 l 5
 665.998 36.1152 l 5
 604.008 97.9902 l 5
 542.832 37.3857 458.633 0 365.742 0 c 4
 179.082 0 27.9922 151.075 27.9922 337.735 c 4
 27.9922 524.415 179.062 676 365.742 676 c 4xf0
365.742 673.5 m 4
 180.432 673.5 30.4922 523.07 30.4922 337.735 c 4
 30.4922 152.426 180.432 2.5 365.742 2.5 c 4
 457.973 2.5 541.547 39.5898 602.248 99.75 c 5
 364.867 336.74 l 5
 366.508 338.75 l 5
 366.742 338.5 l 5
 366.877 338.87 l 5
 371.117 336.115 l 5
 662.992 181.74 l 5
 687.582 228.34 701.508 281.391 701.508 337.735 c 4
 701.508 523.07 551.077 673.5 365.742 673.5 c 4
414.633 310.375 m 5
 655.742 168.75 l 6
 657.853 172.325 659.902 175.94 661.877 179.61 c 6
 414.633 310.375 l 5
419.748 301.625 m 5
 640.883 145.625 l 6
 642.992 148.615 644.982 151.66 646.992 154.75 c 6
 419.748 301.625 l 5
419.008 295.86 m 5
 625.742 125.49 l 6
 627.832 128.03 629.867 130.646 631.877 133.245 c 6
 419.008 295.86 l 5
421.992 286.995 m 5
 610.998 108.87 l 6
 612.932 110.94 614.867 113.011 616.742 115.12 c 6
 421.992 286.995 l 5
664.123 178.5 m 6
 662.133 174.766 660.002 171.136 657.873 167.5 c 6
 665.998 162.735 l 5
 665.998 177.5 l 5xf0
 664.123 178.5 l 6
649.123 153.36 m 6
 647.072 150.235 645.022 147.171 642.873 144.125 c 6
 665.998 127.735 l 5
 665.998 142.5 l 5
 649.123 153.36 l 6
633.752 131.74 m 6
 631.742 129.141 629.707 126.525 627.617 123.985 c 6
 665.998 92.3652 l 5
 665.998 107.11 l 5
 633.752 131.74 l 6
618.617 113.5 m 6
 616.742 111.391 614.807 109.301 612.873 107.25 c 6
 665.998 57.1104 l 5
 665.998 71.7402 l 5
 618.617 113.5 l 6
618.617 113.5 m 4
EndSplineSet
Validated: 524289
EndChar

StartChar: R
Encoding: 82 82 17
Width: 575
VWidth: 0
Flags: W
HStem: -1.74023 20<146.505 524.005 526.62 528.01> 15.7598 2.5<528.01 535.255> 33.75 2.5<518.495 535.255> 51.25 2.5<509.375 535.255> 69.2598 2.5<499.885 535.255> 86.7598 2.5<490.76 535.255> 104.745 2.5<481.25 535.255> 122.245 2.5<472.01 535.255> 140.255 2.5<462.5 535.255> 157.755 2.5<453.26 535.255> 175.255 2.5<444.005 535.255> 193.26 2.5<434.51 535.255> 210.76 2.5<425.255 535.255> 228.75 2.5<415.76 535.255> 246.25 2.5<406.505 535.255> 264.26 2.5<397.01 535.255> 281.76 2.5<387.755 535.255> 299.26 2.5<378.495 535.255> 317.245 2.5<369.005 535.255> 334.745 2.5<359.745 374.848> 671.76 2.5<38.75 108.495 146.505 374.848>
VStem: 108.495 38.0098<18.2598 33.75 53.75 69.2598 89.2598 104.745 124.745 140.255 160.255 175.255 195.76 210.76 231.25 246.25 266.76 281.76 301.76 317.245 337.245 671.76> 525 2.5<487.353 521.644>
LayerCount: 2
Fore
SplineSet
38.75 674.26 m 5xbffffe
 357.755 674.26 l 6
 451.425 674.26 527.5 597.675 527.5 504.51 c 4
 527.5 411.505 452.52 335.82 359.745 334.745 c 5
 367.635 319.745 l 5
 535.255 319.745 l 5
 535.255 317.245 l 5
 369.005 317.245 l 5
 377.13 301.76 l 5
 535.255 301.76 l 5
 535.255 299.26 l 5
 378.495 299.26 l 5
 386.385 284.26 l 5
 535.255 284.26 l 5
 535.255 281.76 l 5
 387.755 281.76 l 5
 395.625 266.76 l 5
 535.255 266.76 l 5
 535.255 264.26 l 5
 397.01 264.26 l 5
 405.135 248.75 l 5
 535.255 248.75 l 5
 535.255 246.25 l 5
 406.505 246.25 l 5
 414.375 231.25 l 5
 535.255 231.25 l 5
 535.255 228.75 l 5
 415.76 228.75 l 5
 423.885 213.26 l 5
 535.255 213.26 l 5
 535.255 210.76 l 5
 425.255 210.76 l 5
 433.125 195.76 l 5
 535.255 195.76 l 5
 535.255 193.26 l 5
 434.51 193.26 l 5
 442.635 177.755 l 5
 535.255 177.755 l 5
 535.255 175.255 l 5
 444.005 175.255 l 5
 451.875 160.255 l 5
 535.255 160.255 l 5
 535.255 157.755 l 5
 453.26 157.755 l 5
 461.135 142.755 l 5
 535.255 142.755 l 5
 535.255 140.255 l 5
 462.5 140.255 l 5
 470.625 124.745 l 5
 535.255 124.745 l 5
 535.255 122.245 l 5
 472.01 122.245 l 5
 479.885 107.245 l 5
 535.255 107.245 l 5
 535.255 104.745 l 5
 481.25 104.745 l 5
 489.375 89.2598 l 5
 535.255 89.2598 l 5
 535.255 86.7598 l 5
 490.76 86.7598 l 5
 498.635 71.7598 l 5
 535.255 71.7598 l 5
 535.255 69.2598 l 5
 499.885 69.2598 l 5
 508.01 53.75 l 5
 535.255 53.75 l 5
 535.255 51.25 l 5
 509.375 51.25 l 5
 517.245 36.25 l 5
 535.255 36.25 l 5
 535.255 33.75 l 5
 518.495 33.75 l 5
 526.62 18.2598 l 5xbffffe
 535.255 18.2598 l 5
 535.255 15.7598 l 5
 528.01 15.7598 l 5x7ffffe
 536.25 0 l 5
 535.255 -0.490234 l 5
 535.255 -1.74023 l 5
 38.75 -1.74023 l 5
 38.75 0.759766 l 5
 108.495 0.759766 l 5
 108.495 671.76 l 5
 38.75 671.76 l 5
 38.75 674.26 l 5xbffffe
146.505 671.76 m 5
 146.505 337.245 l 5
 357.755 337.245 l 6
 450.08 337.245 525 412.19 525 504.51 c 4
 525 596.33 450.08 671.76 357.755 671.76 c 6
 146.505 671.76 l 5
146.505 317.245 m 5
 146.505 301.76 l 5
 374.375 301.76 l 5
 366.25 317.245 l 5
 146.505 317.245 l 5
146.505 281.76 m 5
 146.505 266.76 l 5
 392.87 266.76 l 5
 385 281.76 l 5
 146.505 281.76 l 5
146.505 246.25 m 5
 146.505 231.25 l 5
 411.62 231.25 l 5
 403.75 246.25 l 5
 146.505 246.25 l 5
146.505 210.76 m 5
 146.505 195.76 l 5
 430.37 195.76 l 5
 422.5 210.76 l 5
 146.505 210.76 l 5
146.505 175.255 m 5
 146.505 160.255 l 5
 449.12 160.255 l 5
 441.25 175.255 l 5
 146.505 175.255 l 5
146.505 140.255 m 5
 146.505 124.745 l 5
 467.87 124.745 l 5
 459.745 140.255 l 5
 146.505 140.255 l 5
146.505 104.745 m 5
 146.505 89.2598 l 5
 486.62 89.2598 l 5
 478.495 104.745 l 5
 146.505 104.745 l 5
146.505 69.2598 m 5
 146.505 53.75 l 5
 505.37 53.75 l 5
 497.245 69.2598 l 5
 146.505 69.2598 l 5
146.505 33.75 m 5
 146.505 18.2598 l 5
 524.005 18.2598 l 5
 515.88 33.75 l 5
 146.505 33.75 l 5
146.505 33.75 m 4
EndSplineSet
Validated: 524289
EndChar

StartChar: S
Encoding: 83 83 18
Width: 404
VWidth: 0
Flags: W
HStem: -19.0098 2.5<193.735 210.742> -1.375 285.881<136.798 284.247> 334.995 2.5<184.258 219.748> 388.51 285.74<119.67 267.199> 689.485 2.5<193.242 210.156>
VStem: 32.498 20<451.032 504.62> 351.502 20<168.37 221.71>
LayerCount: 2
Fore
SplineSet
193.242 691.985 m 5
 271.933 691.985 335.998 627.92 335.998 548.745 c 4
 335.998 545.835 335.918 542.885 335.742 539.995 c 4
 335.918 537.101 335.998 534.19 335.998 531.245 c 4
 335.998 452.57 271.933 388.51 193.242 388.51 c 4
 123.223 388.51 65.0176 438.585 52.498 504.62 c 5
 52.5576 412.355 127.463 337.495 219.748 337.495 c 5
 219.748 336.635 l 5
 304.763 327.825 371.502 255.521 371.502 168.256 c 4
 371.502 77.5898 300.252 3.31543 210.742 -1.375 c 4
 204.178 -1.5293 196.442 -1.84473 184.258 0.990234 c 4
 127.518 11.71 82.5771 56.1455 70.998 112.865 c 5
 76.543 40.5801 137.067 -16.5098 210.742 -16.5098 c 5
 210.742 -19.0098 l 5
 132.067 -19.0098 68.0078 45.0703 68.0078 123.745 c 4
 68.0078 126.771 68.1826 129.76 68.377 132.745 c 4
 68.1826 135.715 68.0078 138.726 68.0078 141.75 c 4
 68.0078 220.42 132.067 284.506 210.742 284.506 c 4
 280.763 284.506 338.963 234.385 351.502 168.37 c 5
 351.422 260.131 276.522 334.995 184.258 334.995 c 5
 184.258 335.87 l 5
 98.8672 344.68 32.498 417.006 32.498 504.74 c 4
 32.498 595.05 103.572 669.721 193.242 674.25 c 4
 205.547 674.545 208.418 674.271 219.748 671.985 c 4
 276.248 661.32 321.172 617.24 333.008 560.87 c 5
 326.853 633 266.502 689.485 193.242 689.485 c 5
 193.242 691.985 l 5
193.242 691.985 m 4
EndSplineSet
Validated: 524289
EndChar

StartChar: T
Encoding: 84 84 19
Width: 464
VWidth: 0
Flags: W
HStem: 0 38.0107<160.244 304.244> 71.0156 73.5<195.244 268.76> 177.016 73.4951<195.244 268.76> 283.516 73.5<195.244 268.76> 390 73.0107<195.244 268.76> 496.016 73.5<195.244 268.76> 602.5 73.5156<195.244 268.76> 673.516 2.5<19.5 195.244 268.76 444.5>
VStem: 195.244 73.5156<71.0156 144.516 177.016 250.511 283.516 357.016 390 463.011 496.016 569.516 602.5 673.516>
LayerCount: 2
Fore
SplineSet
19.5 676.016 m 5xfd80
 444.5 676.016 l 5
 444.5 673.516 l 5
 268.76 673.516 l 5xfd80
 268.76 602.5 l 5
 195.244 602.5 l 5xfe80
 195.244 673.516 l 5
 19.5 673.516 l 5
 19.5 676.016 l 5xfd80
195.244 569.516 m 5
 268.76 569.516 l 5
 268.76 496.016 l 5
 195.244 496.016 l 5
 195.244 569.516 l 5
195.244 463.011 m 5
 268.76 463.011 l 5
 268.76 390 l 5
 195.244 390 l 5
 195.244 463.011 l 5
195.244 357.016 m 5
 268.76 357.016 l 5
 268.76 283.516 l 5
 195.244 283.516 l 5
 195.244 357.016 l 5
195.244 250.511 m 5
 268.76 250.511 l 5
 268.76 177.016 l 5
 195.244 177.016 l 5
 195.244 250.511 l 5
195.244 144.516 m 5
 268.76 144.516 l 5
 268.76 71.0156 l 5
 195.244 71.0156 l 5
 195.244 144.516 l 5
160.244 38.0107 m 5
 304.244 38.0107 l 5
 304.244 0 l 5
 160.244 0 l 5
 160.244 38.0107 l 5
160.244 38.0107 m 4
EndSplineSet
Validated: 524289
EndChar

StartChar: U
Encoding: 85 85 20
Width: 593
VWidth: 0
Flags: W
HStem: -8 2.5<277.486 315.569> 27.5107 2.5<274.883 318.224> 630.011 37.5<295.264 507.764>
VStem: 47.252 2.5<221.101 240.011> 82.7637 2.5<219.638 240.011> 507.764 2.5<219.638 240.011> 543.248 2.5<222.081 240.011>
LayerCount: 2
Fore
SplineSet
47.252 668.016 m 5
 85.2637 668.016 l 5
 85.2637 241.261 l 6
 85.2637 124.445 180.184 30.0107 296.514 30.0107 c 4
 413.328 30.0107 507.764 124.445 507.764 241.261 c 6
 507.764 630.011 l 5
 295.264 630.011 l 5
 295.264 667.511 l 5
 507.764 667.511 l 5
 507.764 668.016 l 5
 545.748 668.016 l 5
 545.748 241.261 l 6
 545.748 103.585 434.188 -8 296.514 -8 c 4
 159.248 -8 47.9375 102.921 47.252 240.011 c 6
 47.252 668.016 l 5
49.752 240.011 m 5
 50.4375 104.266 160.613 -5.5 296.514 -5.5 c 4
 432.408 -5.5 542.582 104.266 543.248 240.011 c 5
 510.264 240.011 l 5
 509.578 122.41 414.264 27.5107 296.514 27.5107 c 4
 179.248 27.5107 83.4219 122.41 82.7637 240.011 c 5
 49.752 240.011 l 5
49.752 240.011 m 4
EndSplineSet
Validated: 524289
EndChar

StartChar: V
Encoding: 86 86 21
Width: 618
VWidth: 0
Flags: W
HStem: 668.359 2.5<308.922 590.562>
LayerCount: 2
Fore
SplineSet
25.4277 670.859 m 5
 184.938 670.859 l 5
 184.938 669.609 l 5
 186.188 669.859 l 5
 328.182 102.87 l 5
 326.812 102.5 l 5
 325.938 101.734 l 5
 222.438 205.234 l 5
 308.922 0 l 5
 590.562 668.359 l 5
 308.922 668.359 l 5
 308.922 670.859 l 5
 592.438 670.859 l 5
 592.438 669.609 l 5
 593.688 669.12 l 5
 310.057 -3.89062 l 5
 308.922 -3.37988 l 5
 307.672 -3.89062 l 5
 24.3125 669.12 l 5
 25.4277 669.609 l 5
 25.4277 670.859 l 5
25.4277 670.859 m 4
EndSplineSet
Validated: 524289
EndChar

StartChar: W
Encoding: 87 87 22
Width: 798
VWidth: 0
Flags: W
HStem: 0 38.0107<167.242 293.117 295.992 324.117 473.373 501.617 504.367 630.248> 654.766 20G<25.7578 36.5309 202.867 213.67 583.949 594.742 761.451 772.242> 654.766 20G<25.7578 36.5309 202.867 213.67 583.949 594.742 761.451 772.242>
LayerCount: 2
Fore
SplineSet
28.1172 674.766 m 5xc0
 295.992 38.0107 l 5
 324.117 38.0107 l 5
 397.377 211.875 l 5
 202.867 673.75 l 5
 205.248 674.766 l 5
 398.742 215.255 l 5
 592.377 674.766 l 5
 594.742 673.75 l 5
 400.133 211.875 l 5
 473.373 38.0107 l 5
 501.617 38.0107 l 5
 769.877 674.766 l 5
 772.242 673.75 l 5
 504.367 38.0107 l 5
 630.248 38.0107 l 5
 630.248 0 l 5
 167.242 0 l 5
 167.242 38.0107 l 5
 293.117 38.0107 l 5
 25.7578 673.75 l 5
 28.1172 674.766 l 5xc0
28.1172 674.766 m 4
EndSplineSet
Validated: 524289
EndChar

StartChar: X
Encoding: 88 88 23
Width: 570
VWidth: 0
Flags: W
HStem: -1.875 21G<36.6328 72.3838 497.586 533.252> 652.985 19.2598G<35.752 55.1706 71.377 90.4293 106.867 125.453 142.258 160.289 177.742 194.81 213.252 228.626 248.508 260.849 283.992 286.492 309.397 321.377 341.355 356.867 375.26 392.258 409.78 427.742 444.599 463.252 479.728 498.742 514.772 534.248>
VStem: 283.992 2.5<-0.764648 138.61 283.375 388.24 392.125 423.75 427.615 459.235 463.24 494.745 498.75 530.37 534.49 565.875 570.25 600.875 606.5 672.245>
LayerCount: 2
Fore
SplineSet
37.627 672.985 m 5
 283.992 392.125 l 5
 283.992 423.865 l 5
 71.377 671.5 l 5
 73.252 672.985 l 5
 283.992 427.615 l 5
 283.992 459.49 l 5
 106.867 671.5 l 5
 108.742 672.985 l 5
 283.992 463.24 l 5
 283.992 494.86 l 5
 142.258 671.5 l 5
 144.248 672.985 l 5
 283.992 498.75 l 5
 283.992 530.37 l 5
 177.742 671.5 l 5
 179.758 672.985 l 5
 283.992 534.49 l 5
 283.992 565.875 l 5
 213.252 671.62 l 5
 215.242 672.985 l 5
 283.992 570.25 l 5
 283.992 601.11 l 5
 248.508 671.735 l 5
 250.867 672.87 l 5
 283.992 606.5 l 5
 283.992 672.245 l 5
 286.492 672.245 l 5
 286.492 606.365 l 5
 319.248 672.87 l 5
 321.377 671.735 l 5
 286.492 600.875 l 5
 286.492 570.25 l 5
 354.617 672.985 l 5
 356.867 671.62 l 5
 286.492 565.875 l 5
 286.492 534.49 l 5
 390.242 672.985 l 5
 392.258 671.5 l 5
 286.492 530.37 l 5
 286.492 498.61 l 5
 425.752 672.985 l 5
 427.742 671.5 l 5
 286.492 494.745 l 5
 286.492 462.985 l 5
 461.242 672.985 l 5
 463.252 671.5 l 5
 286.492 459.235 l 5
 286.492 427.5 l 5
 496.867 672.985 l 5
 498.742 671.5 l 5
 286.492 423.75 l 5
 286.492 391.875 l 5
 532.258 672.985 l 5
 534.248 671.5 l 5
 286.492 388.24 l 5
 286.492 283.375 l 5
 534.248 0 l 5
 533.252 -0.764648 l 5
 532.627 -1.875 l 5
 286.492 138.61 l 5
 286.492 -0.764648 l 5
 283.992 -0.764648 l 5
 283.992 138.61 l 5
 37.2578 -1.875 l 5
 36.6328 -0.625 l 5
 35.752 0 l 5
 36.0078 0.370117 l 5
 36.123 0.485352 l 5
 283.992 283.24 l 5
 283.992 388.375 l 5
 35.752 671.5 l 5
 37.627 672.985 l 5
37.627 672.985 m 4
EndSplineSet
Validated: 524289
EndChar

StartChar: Y
Encoding: 89 89 24
Width: 532
VWidth: 0
Flags: W
HStem: 0 21G<264.488 266.988> 653.89 20G<18.002 43.6066 513.373 514.367>
VStem: 264.488 2.5<0 283.515 394.63 459.63>
LayerCount: 2
Fore
SplineSet
265.873 494.26 m 0,0,-1
18.4863 673.89 m 1,1,-1
 195.113 533.265 l 1,2,-1
 264.992 602.755 l 1,3,-1
 265.738 602.015 l 1,4,-1
 266.611 602.755 l 1,5,-1
 336.867 533.125 l 1,6,-1
 513.373 673.75 l 1,7,-1
 513.373 673.89 l 1,8,-1
 514.367 673.01 l 1,9,-1
 515.113 672.265 l 1,10,-1
 515.248 672.265 l 1,11,-1
 515.113 672.015 l 1,12,-1
 514.736 671.76 l 1,13,-1
 266.611 388.75 l 1,14,-1
 265.986 389.26 l 1,15,-1
 265.738 389.515 l 1,16,-1
 265.617 389.515 l 1,17,-1
 264.736 388.75 l 1,18,-1
 16.752 672.265 l 1,19,-1
 18.002 673.265 l 1,20,-1
 18.4863 673.89 l 1,1,-1
34.4883 658.01 m 1,21,-1
 195.248 497.89 l 1,22,-1
 264.992 567.755 l 1,23,-1
 265.738 567.015 l 1,24,-1
 266.611 567.755 l 1,25,-1
 336.752 497.755 l 1,26,-1
 497.613 658.01 l 1,27,-1
 337.613 530.51 l 1,28,-1
 336.752 531.505 l 1,29,-1
 335.873 530.625 l 1,30,-1
 265.873 600.39 l 1,31,-1
 196.242 530.625 l 1,32,-1
 195.248 531.505 l 1,33,-1
 194.488 530.51 l 1,34,-1
 34.4883 658.01 l 1,21,-1
265.873 529.765 m 1,35,-1
 215.113 478.635 l 1,36,-1
 239.111 470.765 l 1,37,-1
 264.992 496.875 l 1,38,-1
 265.738 496.015 l 1,39,-1
 266.611 496.875 l 1,40,-1
 292.748 470.765 l 1,41,-1
 316.988 478.635 l 1,42,-1
 265.873 529.765 l 1,35,-1
239.623 467.89 m 1,43,-1
 232.123 460.255 l 1,44,-1
 264.488 394.63 l 1,45,-1
 264.488 459.63 l 1,46,-1
 239.623 467.89 l 1,43,-1
292.236 467.89 m 1,47,-1
 266.988 459.63 l 1,48,-1
 266.988 394.63 l 1,49,-1
 299.736 460.39 l 1,50,-1
 292.236 467.89 l 1,47,-1
264.488 283.515 m 1,51,-1
 266.988 283.515 l 1,52,-1
 266.988 0 l 1,53,-1
 264.488 0 l 1,54,-1
 264.488 283.515 l 1,51,-1
264.488 283.515 m 0,55,-1
EndSplineSet
Validated: 524289
EndChar

StartChar: Z
Encoding: 90 90 25
Width: 672
VWidth: 0
Flags: W
HStem: 0 38.0098<175.49 638.5> 0 2.5<109.125 175.49> 70.5098 38.0059<281.484 567.484> 141.505 38.0107<352.485 567.484> 212.5 38.0098<423.5 567.484> 283.516 37.9893<175.49 437.484 441.234 482.484 486.115 567.484> 354.005 38.0107<104.495 185.745 189.495 230.61 234.495 496.996> 425 38.0098<104.495 248.984> 496.016 37.9893<104.495 319.495> 567.016 37.5<104.495 390.49> 637.5 38.0098<33.5 496.996> 673.01 2.5<496.996 562.99>
LayerCount: 2
Fore
SplineSet
281.484 108.516 m 1x3fc0
 567.484 108.516 l 1
 567.484 70.5098 l 1
 281.484 70.5098 l 1
 281.484 108.516 l 1x3fc0
281.484 108.516 m 0
352.485 179.516 m 1
 567.484 179.516 l 1
 567.484 141.505 l 1
 352.485 141.505 l 1
 352.485 179.516 l 1
352.485 179.516 m 0
423.5 250.51 m 1
 567.484 250.51 l 1
 567.484 212.5 l 1
 423.5 212.5 l 1
 423.5 250.51 l 1
423.5 250.51 m 0
104.495 463.01 m 1
 248.984 463.01 l 1
 248.984 425 l 1
 104.495 425 l 1
 104.495 463.01 l 1
104.495 463.01 m 0
104.495 534.005 m 1
 319.495 534.005 l 1
 319.495 496.016 l 1
 104.495 496.016 l 1
 104.495 534.005 l 1
104.495 534.005 m 0
104.495 604.516 m 1
 390.49 604.516 l 1
 390.49 567.016 l 1
 104.495 567.016 l 1
 104.495 604.516 l 1
104.495 604.516 m 0
33.5 675.51 m 1x3fe0
 566.234 675.51 l 1
 566.234 674.26 l 1
 566.996 673.266 l 1
 234.495 392.016 l 1
 496.996 392.016 l 1
 496.996 354.005 l 1
 189.495 354.005 l 1
 106.484 283.75 l 1
 104.985 285.766 l 1
 185.745 354.005 l 1
 104.495 354.005 l 1
 104.495 392.016 l 1
 230.61 392.016 l 1
 562.99 673.01 l 1
 496.996 673.01 l 1x3fd0
 496.996 637.5 l 1
 33.5 637.5 l 1
 33.5 675.51 l 1x3fe0
565.49 391.76 m 1
 566.996 389.885 l 1
 486.115 321.505 l 1
 567.484 321.505 l 1
 567.484 283.516 l 1
 441.234 283.516 l 1
 109.125 2.5 l 1
 175.49 2.5 l 1x7fc0
 175.49 38.0098 l 1
 638.5 38.0098 l 1
 638.5 0 l 1xbfc0
 105.745 0 l 1x7fc0
 105.745 1.25 l 1
 104.985 2.26562 l 1
 437.484 283.516 l 1
 175.49 283.516 l 1
 175.49 321.505 l 1
 482.484 321.505 l 1
 565.49 391.76 l 1
565.49 391.76 m 0
EndSplineSet
Validated: 524289
EndChar

StartChar: a
Encoding: 97 97 26
Width: 603
VWidth: 0
Flags: W
HStem: -1.50488 21G<553.096 584.995> -1 21G<16.8701 27.6699> 281.734 2.5<146.13 159 196.755 229.37 267.38 300.25 338.12 371.01 409 441.245 467.495 584.995> 653.495 20G<291.835 301.5 301.5 302.75>
VStem: 229.37 38.0098<284.234 322.646> 300.25 37.8701<284.234 361.116> 371.01 37.9902<284.234 309.823>
LayerCount: 2
Fore
SplineSet
300.25 673.495 m 5x7e
 301.5 672.984 l 5
 302.635 673.495 l 5
 302.75 673.125 l 5
 302.75 672.984 l 5
 466.5 284.234 l 5
 584.995 284.234 l 5
 584.995 281.734 l 5
 467.495 281.734 l 5
 586.13 0 l 5
 584.995 -0.510742 l 5
 584.37 -1.50488 l 5xbe
 141.245 281.875 l 5
 142.01 282.984 l 5
 142.01 284.234 l 5
 159 284.234 l 5
 282.75 625.25 l 5
 19.2549 -1 l 5
 16.8701 0 l 5
 300.25 673.495 l 5x7e
300.25 645.25 m 5
 267.38 284.234 l 5
 300.25 284.234 l 5
 300.25 645.25 l 5
305.25 645.25 m 5
 338.12 284.234 l 5
 371.01 284.234 l 5
 305.25 645.25 l 5
295.135 645.114 m 5
 196.755 284.234 l 5
 229.37 284.234 l 5
 295.135 645.114 l 5
310.62 643.864 m 5
 409 284.234 l 5
 441.245 284.234 l 5
 310.62 643.864 l 5
146.13 281.734 m 5
 582.26 2.75 l 5
 464.76 281.734 l 5
 146.13 281.734 l 5
146.13 281.734 m 4
EndSplineSet
Validated: 524289
EndChar

StartChar: b
Encoding: 98 98 27
Width: 466
VWidth: 0
Flags: W
HStem: -1.25 2.5<48.2451 267.603> 106.5 1.25<188.496 189.744 222.755 224.004> 335.25 2.5<189.744 222.755 225.255 267.603> 565.738 1.25195<188.496 189.744 222.755 224.004> 672.245 2.5<48.2451 267.603>
VStem: 45.7451 2.5<1.25 672.245> 98.749 90.9951<189.612 306.779 366.431 483.673> 187.244 2.5<107.75 158.24 515.25 565.738> 222.755 2.5<106.5 335.25 337.75 566.99> 222.755 1.24902<106.5 107.75 565.738 566.99> 417.755 2.5<151.552 186.983 486.419 521.942>
LayerCount: 2
Fore
SplineSet
224.004 107.75 m 5xfc60
 224.004 105.25 l 5
 188.496 105.25 l 5
 188.496 107.75 l 5
 224.004 107.75 l 5xfc60
224.004 568.238 m 5
 224.004 565.738 l 5
 188.496 565.738 l 5
 188.496 568.238 l 5
 224.004 568.238 l 5
46.9951 674.745 m 5
 259.495 674.745 l 5
 259.495 674.49 l 5
 349.005 669.82 420.255 595.66 420.255 505 c 4
 420.255 418.086 354.765 346.405 270.51 336.5 c 5
 354.765 326.6 420.255 254.961 420.255 168.495 c 4
 420.255 77.8301 349.005 3.66992 259.495 -1 c 5
 259.495 -1.25 l 5
 46.9951 -1.25 l 5
 46.9951 0 l 5
 45.7451 0 l 5
 45.7451 673.495 l 5
 46.9951 673.495 l 5
 46.9951 674.745 l 5
48.2451 672.245 m 5
 48.2451 1.25 l 5
 250.51 1.25 l 6
 342.835 1.25 417.755 76.1699 417.755 168.495 c 4
 417.755 260.311 342.835 335.25 250.51 335.25 c 6
 225.255 335.25 l 5
 225.255 106.5 l 5
 222.755 106.5 l 5
 222.755 335.25 l 5
 189.744 335.25 l 5
 189.744 106.5 l 5
 187.244 106.5 l 5
 187.244 158.24 l 5xfda0
 138.165 158.905 98.749 198.75 98.749 247.985 c 4
 98.749 291.68 129.724 327.891 170.994 335.995 c 5
 170.994 336.875 l 5
 129.724 345.096 98.749 381.814 98.749 425.485 c 4xfe20
 98.749 474.256 138.145 514.57 187.244 515.25 c 5
 187.244 566.99 l 5
 189.744 566.99 l 5
 189.744 337.75 l 5
 222.755 337.75 l 5
 222.755 566.99 l 5
 225.255 566.99 l 5
 225.255 337.75 l 5xfda0
 250.51 337.75 l 6
 342.835 337.75 417.755 412.676 417.755 505 c 4
 417.755 597.32 342.835 672.245 250.51 672.245 c 6
 48.2451 672.245 l 5
48.2451 672.245 m 4
EndSplineSet
Validated: 524293
EndChar

StartChar: c
Encoding: 99 99 28
Width: 419
VWidth: 0
Flags: W
HStem: -2.50098 2.5<341.838 367.51> 671.015 2.5<341.838 367.51>
VStem: 31.0049 2.5<309.466 361.109> 367.51 20.4854<-0.000976562 248.01 423.01 671.015>
LayerCount: 2
Fore
SplineSet
367.51 673.515 m 2
 387.995 673.515 l 1
 387.995 423.01 l 1
 367.51 423.01 l 1
 367.51 671.015 l 1
 183.25 670.334 33.5049 520.159 33.5049 335.254 c 0
 33.5049 150.859 183.25 0.68457 367.51 -0.000976562 c 1
 367.51 248.01 l 1
 387.995 248.01 l 1
 387.995 -2.50098 l 1
 368.76 -2.50098 l 2
 368.33 -2.50098 367.92 -2.50098 367.51 -2.50098 c 0
 181.9 -1.81543 31.0049 149.494 31.0049 335.254 c 0
 31.0049 521.504 181.9 672.834 367.51 673.515 c 2
367.51 673.515 m 0
EndSplineSet
Validated: 524289
EndChar

StartChar: d
Encoding: 100 100 29
Width: 514
VWidth: 0
Flags: W
HStem: 0 2.5<160.242 184.766> 673.495 2.5<160.242 184.761>
VStem: 122.252 73.4961<214.375 248.615 427.365 461.115> 157.742 2.5<2.5 212.5 462.99 673.495> 370.748 2.5<77.7549 599.06> 494.752 2.5<311.122 364.455>
LayerCount: 2
Fore
SplineSet
158.992 675.995 m 1xdc
 238.248 675.995 311.217 648.595 368.873 602.87 c 1
 371.258 604.745 l 1
 371.998 603.75 l 1
 373.248 603.75 l 1
 373.248 599.375 l 1
 448.912 537.305 497.252 443.164 497.252 337.755 c 0
 497.252 232.635 448.873 138.595 373.248 76.6201 c 1
 373.248 69.7451 l 1
 371.258 71.25 l 1
 368.873 73.125 l 1
 311.217 27.4395 238.268 0 158.992 0 c 1
 158.992 1.25 l 1
 157.742 1.25 l 1
 157.742 212.5 l 1xdc
 122.252 212.5 l 1
 122.252 248.615 l 1
 16.748 336.74 l 1
 17.5078 337.755 l 1
 16.748 338.75 l 1
 122.252 427.365 l 1
 122.252 462.99 l 1xec
 157.742 462.99 l 1
 157.742 674.745 l 1
 158.992 674.745 l 1
 158.992 675.995 l 1xdc
160.242 673.495 m 1
 160.242 462.99 l 1
 193.992 462.99 l 1
 366.883 601.25 l 1
 310.008 646.21 238.248 673.225 160.242 673.495 c 1
368.758 599.63 m 2
 195.748 461.115 l 1
 195.748 427.365 l 1
 301.883 338.75 l 1
 301.002 337.755 l 1
 301.883 336.74 l 1
 195.748 248.615 l 1
 195.748 214.375 l 1xec
 368.873 76.25 l 2
 369.498 76.7598 370.123 77.2451 370.748 77.7549 c 2
 370.748 598.125 l 2
 370.102 598.654 369.402 599.1 368.758 599.63 c 2
373.248 596.115 m 1
 373.248 79.7451 l 1
 447.408 141.27 494.752 234.14 494.752 337.755 c 0
 494.752 441.64 447.408 534.51 373.248 596.115 c 1
160.242 212.5 m 1xdc
 160.242 2.5 l 1
 238.268 2.77539 310.008 29.8447 366.883 74.7451 c 1
 194.248 212.5 l 1
 160.242 212.5 l 1xdc
160.242 212.5 m 0
EndSplineSet
Validated: 524289
EndChar

StartChar: e
Encoding: 101 101 30
Width: 515
VWidth: 0
Flags: W
HStem: -2.5 2.5<46.4453 364.18> 333.985 2.5<46.4453 364.18> 671 2.5<46.4453 364.18>
VStem: 43.9453 2.5<0 333.985 336.485 671>
LayerCount: 2
Fore
SplineSet
45.1953 673.5 m 5
 364.18 673.5 l 5
 364.18 671 l 5
 46.4453 671 l 5
 46.4453 336.485 l 5
 364.18 336.485 l 5
 364.18 333.985 l 5
 46.4453 333.985 l 5
 46.4453 0 l 5
 364.18 0 l 5
 364.18 -2.5 l 5
 45.1953 -2.5 l 5
 45.1953 -1.25 l 5
 43.9453 -1.25 l 5
 43.9453 672.25 l 5
 45.1953 672.25 l 5
 45.1953 673.5 l 5
364.939 425.235 m 5
 471.055 336.25 l 5
 470.195 335.235 l 5
 471.055 334.24 l 5
 364.939 245.745 l 5
 363.439 247.735 l 5
 460.939 329.24 l 5
 364.805 281.115 l 5
 363.689 283.245 l 5
 462.305 332.735 l 5
 364.436 316.625 l 5
 364.064 318.985 l 5
 462.93 335.375 l 5
 363.945 351.995 l 5
 364.436 354.375 l 5
 462.07 337.875 l 5
 363.689 387.735 l 5
 364.805 389.865 l 5
 460.564 341.625 l 5
 363.439 423.245 l 5
 364.939 425.235 l 5
364.939 425.235 m 4
EndSplineSet
Validated: 524289
EndChar

StartChar: f
Encoding: 102 102 31
Width: 514
VWidth: 0
Flags: W
HStem: 0 2.5<60.5576 81.7603> 354.004 2.5<301.873 343.633 348.518 379.768 384.998 453.755> 389.494 2.5<373.518 410.252 415.508 453.755> 425 37.9893<373.518 440.623 443.887 444.512> 425 2.49902<444.512 453.537> 725.999 2.5<125.508 443.262>
VStem: 16.502 2.64062<43.2452 52.9893> 123.008 2.5<43.9646 52.9893 58.8691 354.004 462.989 725.999> 494.998 2.5<398.223 479.239>
LayerCount: 2
Fore
SplineSet
124.258 728.499 m 5xf780
 443.262 728.499 l 5
 443.262 725.999 l 5
 125.508 725.999 l 5
 125.508 462.989 l 5
 444.512 462.989 l 5xf780
 444.512 427.499 l 5xef80
 472.732 428.164 494.998 451.329 494.998 479.239 c 5
 497.498 479.239 l 5
 497.498 449.979 474.102 425.664 444.512 425 c 4
 444.297 425 444.082 425 443.887 425 c 6
 415.508 391.994 l 5
 443.262 391.994 l 6
 472.068 391.994 494.998 415.409 494.998 444.239 c 5
 497.498 444.239 l 5
 497.498 414.084 473.438 389.494 443.262 389.494 c 6
 413.377 389.494 l 5
 384.998 356.504 l 5
 443.262 356.504 l 6
 472.068 356.504 494.998 379.904 494.998 408.75 c 5
 497.498 408.75 l 5
 497.498 378.574 473.438 354.004 443.262 354.004 c 6
 382.893 354.004 l 5
 125.877 54.375 l 5
 125.508 53.8691 l 5
 125.312 23.8691 100.803 0 71.248 0 c 4
 41.0918 0 16.502 24.0645 16.502 54.2393 c 5
 17.752 54.2393 l 5
 17.752 55.4893 l 5
 123.008 55.4893 l 5
 123.008 727.249 l 5
 124.258 727.249 l 5
 124.258 728.499 l 5xf780
373.518 425 m 5
 373.518 391.994 l 5
 412.383 391.994 l 5
 440.623 425 l 5
 373.518 425 l 5
301.248 389.494 m 5
 301.248 356.504 l 5
 345.508 356.504 l 5
 369.768 389.494 l 5
 301.248 389.494 l 5
372.893 389.494 m 5
 348.518 356.504 l 5
 381.873 356.504 l 5
 410.252 389.494 l 5
 372.893 389.494 l 5
125.508 354.004 m 5
 125.508 58.8691 l 5
 299.002 354.004 l 5
 125.508 354.004 l 5
301.873 354.004 m 5
 137.268 74.0039 l 5
 343.633 354.004 l 5
 301.873 354.004 l 5
346.758 354.004 m 5
 145.137 80.4893 l 5
 379.768 354.004 l 5
 346.758 354.004 l 5
19.1426 52.9893 m 5
 19.8027 24.7695 42.832 2.5 71.248 2.5 c 4
 99.1777 2.5 122.342 24.7695 123.008 52.9893 c 5
 19.1426 52.9893 l 5
19.1426 52.9893 m 4
EndSplineSet
Validated: 524289
EndChar

StartChar: g
Encoding: 103 103 32
Width: 492
VWidth: 0
Flags: W
HStem: -1.25 2.5<335.183 430.513> 282.246 2.5<361.161 377.872> 317.756 37.9844<289.263 336.508 339.498 430.748 433.248 468.752> 565.74 2.5<362.978 377.502> 671.756 2.5<334.994 359.888>
VStem: 23.248 2.5<310.594 362.389> 235.748 2.5<408.581 443.044> 430.748 2.5<13.6309 317.756>
LayerCount: 2
Fore
SplineSet
360.997 674.256 m 5
 360.997 673.006 l 5
 362.247 673.24 l 5
 380.258 567.131 l 5
 379.008 566.99 l 5
 379.008 565.74 l 5
 301.172 565.74 238.248 502.83 238.248 425 c 4
 238.248 354.92 289.888 296.66 357.502 286.365 c 5
 336.508 317.756 l 5
 289.263 317.756 l 5
 289.263 355.74 l 5
 468.752 355.74 l 5
 468.752 317.756 l 5
 433.248 317.756 l 5
 433.248 0 l 5
 431.998 0 l 5
 431.998 -1.25 l 5
 360.997 -1.25 l 6
 174.337 -1.25 23.248 149.826 23.248 336.506 c 4
 23.248 523.166 174.337 674.256 360.997 674.256 c 5
359.888 671.756 m 5
 175.082 671.131 25.748 521.445 25.748 336.506 c 4
 25.748 151.17 175.688 1.25 360.997 1.25 c 6
 430.513 1.25 l 5
 377.872 282.246 l 5
 372.172 282.285 366.547 282.811 360.997 283.496 c 6
 359.377 283.75 l 6
 289.498 293.28 235.748 352.931 235.748 425 c 4
 235.748 503.67 299.027 567.44 377.502 568.24 c 5
 359.888 671.756 l 5
339.498 317.756 m 5
 360.883 285.996 l 6
 366.817 285.235 372.852 284.746 379.008 284.746 c 5
 379.008 283.496 l 5
 380.258 283.75 l 5
 430.748 13.6309 l 5
 430.748 317.756 l 5
 339.498 317.756 l 5
339.498 317.756 m 4
EndSplineSet
Validated: 524289
EndChar

StartChar: h
Encoding: 104 104 33
Width: 583
VWidth: 0
Flags: W
HStem: -42.75 2.5<25.748 36.2551 121.73 132.252 451.258 461.612 546.75 557.252> 311.25 37.9893<397.764 502.992> 736.739 2.5<25.748 36.2495 121.73 132.252 451.258 461.606 546.75 557.252>
VStem: 77.5078 2.5<0.991333 311.25 349.609 695.016> 502.992 2.5<0.991333 311.25 349.239 695.016>
LayerCount: 2
Fore
SplineSet
25.748 739.239 m 5
 51.8828 739.239 73.4434 720.784 78.7578 696.25 c 5
 84.1484 720.819 106.104 739.239 132.252 739.239 c 5
 132.252 736.739 l 5
 103.422 736.739 80.0078 713.319 80.0078 684.495 c 6
 80.0078 349.609 l 5
 291.514 402.734 l 5
 291.742 401.484 l 5
 292.992 401.484 l 5
 292.992 349.239 l 5
 502.992 349.239 l 5
 502.992 684.495 l 6
 502.992 713.319 479.559 736.739 451.258 736.739 c 5
 451.258 739.239 l 5
 477.059 739.239 498.953 720.685 504.242 696 c 5
 509.457 720.665 531.023 739.239 557.252 739.239 c 5
 557.252 736.739 l 5
 528.422 736.739 505.492 713.319 505.492 684.495 c 6
 505.492 11.4844 l 6
 505.492 -17.3408 528.422 -40.25 557.252 -40.25 c 5
 557.252 -42.75 l 5
 531.043 -42.75 509.457 -24.5703 504.242 0 c 5
 498.953 -24.5703 477.037 -42.75 451.258 -42.75 c 5
 451.258 -40.25 l 5
 479.578 -40.25 502.992 -17.3203 502.992 11.4844 c 6
 502.992 311.25 l 5
 397.764 311.25 l 5
 292.252 276.25 l 5
 291.742 277.5 l 5
 290.492 277.5 l 5
 290.492 311.25 l 5
 80.0078 311.25 l 5
 80.0078 11.4844 l 6
 80.0078 -17.3203 103.422 -40.25 132.252 -40.25 c 5
 132.252 -42.75 l 5
 106.117 -42.75 84.1484 -24.7051 78.7578 -0.25 c 5
 73.4434 -24.6855 51.8633 -42.75 25.748 -42.75 c 5
 25.748 -40.25 l 5
 54.5977 -40.25 77.5078 -17.3408 77.5078 11.4844 c 6
 77.5078 684.495 l 6
 77.5078 713.319 54.5781 736.739 25.748 736.739 c 5
 25.748 739.239 l 5
25.748 739.239 m 4
EndSplineSet
Validated: 524289
EndChar

StartChar: i
Encoding: 105 105 34
Width: 245
VWidth: 0
Flags: W
HStem: -0.00292969 38.0059<50.2559 121.25 123.75 194.744> 673.003 2.5<51.5039 193.496>
VStem: 50.2559 144.488<-0.00292969 38.0029 638.003 675.503> 121.25 2.5<38.0029 213.747 355.737 638.003>
LayerCount: 2
Fore
SplineSet
193.496 0 m 1
 51.5039 0 l 1xc0
193.496 675.503 m 1
 193.496 673.003 l 1
 51.5039 673.003 l 1
 51.5039 675.503 l 1
 193.496 675.503 l 1
50.2559 675.503 m 1xe0
 194.744 675.503 l 1
 194.744 638.003 l 1xe0
 123.75 638.003 l 1
 123.75 355.737 l 1
 121.25 355.737 l 1
 121.25 638.003 l 1xd0
 50.2559 638.003 l 1
 50.2559 675.503 l 1xe0
52.5 356.753 m 1
 122.5 286.503 l 1
 192.621 356.753 l 1
 194.26 354.743 l 1
 123.381 283.862 l 1
 122.5 284.743 l 1
 121.619 283.862 l 1
 50.5098 354.743 l 1
 52.5 356.753 l 1
52.5 320.993 m 1
 122.5 250.993 l 1
 192.621 320.993 l 1
 194.26 319.372 l 1
 123.381 248.378 l 1
 122.5 249.253 l 1
 121.619 248.378 l 1
 50.5098 319.372 l 1
 52.5 320.993 l 1
121.25 213.747 m 1xd0
 123.75 213.747 l 1
 123.75 38.0029 l 1xd0
 194.744 38.0029 l 1
 194.744 -0.00292969 l 1
 50.2559 -0.00292969 l 1
 50.2559 38.0029 l 1xe0
 121.25 38.0029 l 1
 121.25 213.747 l 1xd0
121.25 213.747 m 0
EndSplineSet
Validated: 524299
EndChar

StartChar: j
Encoding: 106 106 35
Width: 392
VWidth: 0
Flags: W
HStem: 0 2.5<142.647 178.739> 35 2.5<145.831 175.541> 53.0059 2.5<147.24 174.137> 105.996 2.5<152.353 169.144> 176.99 2.5<152.353 169.144> 230 2.5<147.24 174.137> 248.006 2.5<145.831 175.541> 283.496 2.5<142.803 160.744> 300.996 2.5<181.121 195.242> 318.496 2.5<198.756 213.537> 655.506 37.5<230.006 301 303.5 374.494>
VStem: 17.5059 2.5<124.761 160.853> 52.9961 2.5<127.946 157.562> 71 2.5<129.249 156.26> 124.01 2.5<134.356 151.147> 195.006 2.5<134.356 151.147> 247.996 2.5<129.249 156.26> 265.496 2.5<127.946 157.562> 301 2.5<124.919 655.506> 319.01 2.5<163.125 178.474> 336.51 2.5<180.996 195.539>
LayerCount: 2
Fore
SplineSet
230.006 693.006 m 5
 231.256 693.006 l 5
 374.494 693.006 l 5
 374.494 655.506 l 5
 303.5 655.506 l 5
 303.5 272.381 l 5
 325.045 247.851 338.346 215.916 339.01 180.996 c 5
 354.381 196.756 l 5
 356.121 194.746 l 5
 321.121 159.375 l 5
 320.119 160.256 l 5
 319.01 160.256 l 5
 319.01 183.496 313.459 205.431 303.5 224.746 c 5
 303.5 142.756 l 6
 303.5 64.0605 239.439 0 160.744 0 c 4
 81.584 0 17.5059 64.0605 17.5059 142.756 c 4
 17.5059 221.916 81.584 285.996 160.744 285.996 c 5
 160.744 283.496 l 5
 82.9355 283.496 20.0059 220.565 20.0059 142.756 c 4
 20.0059 65.4307 82.9355 2.5 160.744 2.5 c 4
 238.07 2.5 301 65.4307 301 142.756 c 6
 301 229.375 l 5
 276.859 272.166 230.939 300.996 178.244 300.996 c 5
 178.244 302.131 l 5
 177.371 303.125 l 5
 212.76 338.496 l 5
 214.75 336.875 l 5
 198.756 320.996 l 5
 239.105 320.291 275.416 302.791 301 275.115 c 5
 301 655.506 l 5
 230.006 655.506 l 5
 230.006 693.006 l 5
195.26 338.496 m 5
 197.25 336.875 l 5
 161.51 301.365 l 5
 159.871 303.125 l 5
 195.26 338.496 l 5
196.256 318.496 m 5
 181.121 303.496 l 5
 231.975 302.5 276.369 275.096 301 234.375 c 5
 301 271.365 l 5
 275.279 300.271 237.855 318.496 196.256 318.496 c 5
303.5 268.496 m 5
 303.5 230 l 5
 314.555 210.155 321.02 187.346 321.51 163.125 c 5
 336.51 178.496 l 5
 336.449 212.771 324.064 244.121 303.5 268.496 c 5
160.744 250.506 m 4
 219.926 250.506 267.996 201.936 267.996 142.756 c 4
 267.996 83.5762 219.926 35 160.744 35 c 4
 101.08 35 52.9961 83.5762 52.9961 142.756 c 4
 52.9961 201.936 101.08 250.506 160.744 250.506 c 4
160.744 248.006 m 4
 102.426 248.006 55.4961 200.565 55.4961 142.756 c 4
 55.4961 84.9199 102.426 37.5 160.744 37.5 c 4
 218.561 37.5 265.496 84.9199 265.496 142.756 c 4
 265.496 200.565 218.561 248.006 160.744 248.006 c 4
160.744 232.5 m 4
 209.926 232.5 250.496 192.42 250.496 142.756 c 4
 250.496 93.0654 209.926 53.0059 160.744 53.0059 c 4
 111.08 53.0059 71 93.0859 71 142.756 c 4
 71 192.42 111.08 232.5 160.744 232.5 c 4
160.744 230 m 4
 112.426 230 73.5 191.076 73.5 142.756 c 4
 73.5 94.416 112.426 55.5059 160.744 55.5059 c 4
 208.58 55.5059 247.996 94.4355 247.996 142.756 c 4
 247.996 191.076 208.58 230 160.744 230 c 4
160.744 179.49 m 4
 180.939 179.49 197.506 162.931 197.506 142.756 c 4
 197.506 122.561 180.939 105.996 160.744 105.996 c 4
 140.57 105.996 124.01 122.561 124.01 142.756 c 4
 124.01 162.931 140.57 179.49 160.744 179.49 c 4
354.381 179.256 m 5
 356.121 177.246 l 5
 321.121 141.875 l 5
 319.381 143.496 l 5
 354.381 179.256 l 5
160.744 176.99 m 4
 141.939 176.99 126.51 161.561 126.51 142.756 c 4
 126.51 123.926 141.939 108.496 160.744 108.496 c 4
 179.574 108.496 195.006 123.926 195.006 142.756 c 4
 195.006 161.561 179.574 176.99 160.744 176.99 c 4
160.744 176.99 m 4
EndSplineSet
Validated: 524289
EndChar

StartChar: k
Encoding: 107 107 36
Width: 524
VWidth: 0
Flags: W
HStem: 0 21G<48.4336 50.9336 83.4336 85.9336 381.788 404.547> 653.003 20G<48.4336 50.9336 83.4336 85.9336 381.788 404.547>
VStem: 48.4336 2.5<0 673.003> 83.4336 2.5<0 283.491 390 673.003>
LayerCount: 2
Fore
SplineSet
85.9336 0 m 5
 83.4336 0 l 5
 83.4336 283.491 l 5
 85.9336 283.491 l 5
 85.9336 0 l 5
85.9336 390 m 5
 83.4336 390 l 5
 83.4336 673.003 l 5
 85.9336 673.003 l 5
 85.9336 390 l 5
404.57 -36.3965 m 5
 402.803 -34.6289 l 5
 473.799 36.3867 l 5
 475.566 34.6191 l 5
 404.57 -36.3965 l 5
475.562 638.892 m 5
 473.805 637.114 l 5
 402.809 707.603 l 5
 404.566 709.38 l 5
 475.562 638.892 l 5
475.566 603.384 m 5
 473.799 601.616 l 5
 367.314 707.607 l 5
 369.082 709.375 l 5
 475.566 603.384 l 5
369.082 -36.3965 m 5
 367.314 -34.6289 l 5
 473.799 71.875 l 5
 475.566 70.1074 l 5
 369.082 -36.3965 l 5
422.555 18.4082 m 5
 420.836 16.5918 l 5
 83.8242 335.596 l 5
 85.543 337.412 l 5
 422.555 18.4082 l 5
420.836 656.411 m 5
 422.555 654.595 l 5
 68.043 318.096 l 5
 66.3242 319.912 l 5
 420.836 656.411 l 5
404.547 0.908203 m 5
 402.828 -0.908203 l 5
 48.8242 335.596 l 5
 50.543 337.412 l 5
 404.547 0.908203 l 5
402.828 673.911 m 5
 404.547 672.095 l 5
 50.543 335.596 l 5
 48.8242 337.412 l 5
 402.828 673.911 l 5
50.9336 0 m 5
 48.4336 0 l 5
 48.4336 673.003 l 5
 50.9336 673.003 l 5
 50.9336 0 l 5
EndSplineSet
Validated: 524293
EndChar

StartChar: l
Encoding: 108 108 37
Width: 560
VWidth: 0
Flags: W
HStem: 0 73.4951<122.013 439.748> 655.995 20G<49.748 70.6237 85.252 120.763> 655.995 20G<49.748 70.6237 85.252 120.763>
VStem: 48.498 73.5146<73.4951 603.75>
LayerCount: 2
Fore
SplineSet
85.252 675.995 m 1xd0
 120.763 675.995 l 1
 120.763 674.745 l 1
 122.013 674.745 l 1
 122.013 639.255 l 1
 120.763 639.255 l 1
 119.883 638.38 l 1
 84.3721 673.865 l 1
 85.252 674.745 l 1
 85.252 675.995 l 1xd0
50.6221 675.625 m 1
 121.623 604.63 l 1
 120.622 603.75 l 1
 122.013 603.75 l 1
 122.013 73.4951 l 1
 439.748 73.4951 l 1
 439.748 72.1299 l 1
 440.622 73.125 l 1
 511.133 2.12988 l 1
 510.252 1.25 l 1
 510.252 0 l 1
 49.748 0 l 1
 49.748 1.25 l 1
 48.498 1.25 l 1
 48.498 674.745 l 1
 49.748 674.745 l 1
 50.6221 675.625 l 1
474.748 73.4951 m 1
 510.252 73.4951 l 1
 510.252 72.2451 l 1
 511.502 72.2451 l 1
 511.502 36.7549 l 1
 510.252 36.7549 l 1
 509.372 35.8799 l 1
 474.002 71.3652 l 1
 474.748 72.1299 l 1
 474.748 73.4951 l 1
474.748 73.4951 m 0
EndSplineSet
Validated: 524289
EndChar

StartChar: m
Encoding: 109 109 38
Width: 569
VWidth: 0
Flags: W
HStem: 0 38.0107<55.5049 513.495> 283.495 2.5<221.134 242.215 327.15 348.351> 336.506 2.5<125.255 176.99 179.49 231.755 337.755 337.755 391.99 444.255> 655.511 20G<54.2549 68.9303 500.104 514.745> 655.511 20G<54.2549 68.9303 500.104 514.745>
VStem: 53.0049 2.5<38.0107 670.761> 176.99 2.5<327.607 336.506> 283.495 2.5<327.097 337.386> 389.49 2.5<327.168 336.506> 513.495 2.5<38.0107 670.761>
LayerCount: 2
Fore
SplineSet
55.2549 675.511 m 5xf7c0
 284.745 339.886 l 5
 513.75 675.511 l 5
 514.745 674.745 l 5
 515.995 674.745 l 5
 515.995 0 l 5
 53.0049 0 l 5
 53.0049 674.745 l 5
 54.2549 674.745 l 5
 55.2549 675.511 l 5xf7c0
55.5049 670.761 m 5
 55.5049 38.0107 l 5
 513.495 38.0107 l 5
 513.495 670.761 l 5
 285.995 337.386 l 5
 286.21 309.221 309.06 285.995 337.755 285.995 c 4
 366.15 285.995 388.824 308.75 389.49 336.506 c 5
 337.755 336.506 l 5
 337.755 339.006 l 5
 444.255 339.006 l 5
 444.255 336.506 l 5
 391.99 336.506 l 5
 391.324 307.405 367.5 283.495 337.755 283.495 c 4
 311.525 283.495 289.96 302.051 284.745 326.386 c 5
 279.449 302.051 257.54 283.495 231.755 283.495 c 4
 201.99 283.495 177.675 307.386 176.99 336.506 c 5
 125.255 336.506 l 5
 125.255 339.006 l 5
 231.755 339.006 l 5
 231.755 336.506 l 5
 179.49 336.506 l 5
 180.175 308.771 203.359 285.995 231.755 285.995 c 4
 259.939 285.995 283.3 309.24 283.495 337.386 c 5
 55.5049 670.761 l 5
55.5049 670.761 m 4
EndSplineSet
Validated: 524289
EndChar

StartChar: n
Encoding: 110 110 39
Width: 499
VWidth: 0
Flags: W
HStem: -0.625 21G<431.791 444.5> 654.766 20G<372.234 445.75> 654.766 20G<54.25 67.1951 372.234 445.75>
VStem: 53.25 73.5<-1.25 497.266> 53.25 2.5<497.266 668.891> 372.234 73.5156<175.766 674.766> 443.25 2.5<4.76562 175.766>
LayerCount: 2
Fore
SplineSet
372.234 674.766 m 5xc4
 445.75 674.766 l 5xc4
 445.75 0 l 5
 444.5 0 l 5
 443.37 -0.625 l 5
 55.75 668.891 l 5
 55.75 497.266 l 5xca
 126.75 497.266 l 5
 126.75 -1.25 l 5
 53.25 -1.25 l 5xd0
 53.25 673.516 l 5
 54.25 673.516 l 5
 55.6152 674.261 l 5
 443.25 4.76562 l 5
 443.25 175.766 l 5xca
 372.234 175.766 l 5
 372.234 674.766 l 5xc4
372.234 674.766 m 4
EndSplineSet
Validated: 524289
EndChar

StartChar: o
Encoding: 111 111 40
Width: 400
VWidth: 0
Flags: W
HStem: -2.5 2.5<183.461 216.125> 33.0107 144.005<120 279.878> 493.516 144.495<120.055 279.774> 671.016 2.5<183.461 216.125>
VStem: 39.4922 2.5<142.097 158.266 512.755 528.923> 358.008 2.5<142.097 158.266 512.755 528.923>
LayerCount: 2
Fore
SplineSet
199.748 673.516 m 4
 288.928 673.516 360.508 601.426 360.508 512.755 c 5
 358.008 512.755 l 5
 358.008 600.08 287.578 671.016 199.748 671.016 c 4
 112.422 671.016 41.9922 600.08 41.9922 512.755 c 5
 39.4922 512.755 l 5
 39.4922 601.426 111.078 673.516 199.748 673.516 c 4
199.748 638.011 m 4
 288.928 638.011 360.508 565.94 360.508 477.266 c 5
 359.258 477.266 l 5
 360.002 476.391 l 5
 320.627 441.391 l 5
 345.492 413.05 360.508 375.88 360.508 335.255 c 4
 360.508 294.785 345.588 257.796 320.883 229.516 c 5
 360.002 194.63 l 5
 359.258 193.75 l 5
 360.508 193.75 l 5
 360.508 105.08 288.928 33.0107 199.748 33.0107 c 4
 111.078 33.0107 39.4922 105.08 39.4922 193.75 c 5
 40.7422 193.75 l 5
 39.8828 194.63 l 5
 79.0078 229.516 l 5
 54.3379 257.796 39.4922 294.785 39.4922 335.255 c 4
 39.4922 375.86 54.4375 413.05 79.2578 441.391 c 5
 39.8828 476.391 l 5
 40.7422 477.266 l 5
 39.4922 477.266 l 5
 39.4922 565.94 111.078 638.011 199.748 638.011 c 4
199.748 493.516 m 4
 153.303 493.516 111.602 473.46 82.7578 441.505 c 5
 200.002 337.13 l 5
 317.133 441.505 l 5
 288.223 473.46 246.467 493.516 199.748 493.516 c 4
200.002 333.75 m 5
 82.6172 229.261 l 5
 111.488 197.21 153.203 177.016 199.748 177.016 c 4
 246.602 177.016 288.477 197.171 317.383 229.261 c 5
 200.002 333.75 l 5
39.4922 158.266 m 5
 41.9922 158.266 l 5
 41.9922 70.9404 112.422 0 199.748 0 c 4
 287.578 0 358.008 70.9404 358.008 158.266 c 5
 360.508 158.266 l 5
 360.508 69.5908 288.928 -2.5 199.748 -2.5 c 4
 111.078 -2.5 39.4922 69.5908 39.4922 158.266 c 5
39.4922 158.266 m 4
EndSplineSet
Validated: 524289
EndChar

StartChar: p
Encoding: 112 112 41
Width: 532
VWidth: 0
Flags: W
HStem: -2.5 2.5<21.625 91.3701 130.26 199.125> 333.985 2.5<129.38 338.5 341.255 357.723> 671 2.5<21.625 91.3701 129.38 357.723>
VStem: 91.3701 38.0098<2.875 333.985 336.485 671> 507.875 2.5<486.55 520.885>
LayerCount: 2
Fore
SplineSet
21.625 673.5 m 5
 340.63 673.5 l 6
 434.3 673.5 510.375 596.915 510.375 503.75 c 4
 510.375 410.275 434.635 334.34 341.255 333.985 c 5
 130.26 0 l 5
 199.125 0 l 5
 199.125 -2.5 l 5
 21.625 -2.5 l 5
 21.625 0 l 5
 91.3701 0 l 5
 91.3701 671 l 5
 21.625 671 l 5
 21.625 673.5 l 5
129.38 671 m 5
 129.38 336.485 l 5
 340.63 336.485 l 6
 432.955 336.485 507.875 411.431 507.875 503.75 c 4
 507.875 595.57 432.955 671 340.63 671 c 6
 129.38 671 l 5
129.38 333.985 m 5
 129.38 2.875 l 5
 338.5 333.985 l 5
 129.38 333.985 l 5
129.38 333.985 m 4
EndSplineSet
Validated: 524289
EndChar

StartChar: q
Encoding: 113 113 42
Width: 732
VWidth: 0
Flags: W
HStem: 0 2.5<339.834 391.534> 673.5 2.5<339.832 391.657>
VStem: 27.9922 2.5<311.827 363.65> 665.998 38.0098<57.1104 71.7402 92.3652 107.11 127.735 142.5 162.735 162.735> 701.508 2.5<308.889 363.65>
LayerCount: 2
Fore
SplineSet
365.742 676 m 4xf0
 552.423 676 704.008 524.415 704.008 337.735 c 4
 704.008 281 689.982 227.54 665.258 180.625 c 5
 667.248 179.495 l 5
 704.008 179.495 l 5
 704.008 1.25 l 5xe8
 702.758 1.25 l 5
 701.877 0.375 l 5
 666.623 35.4902 l 5
 665.998 36.1152 l 5
 604.008 97.9902 l 5
 542.832 37.3857 458.633 0 365.742 0 c 4
 179.082 0 27.9922 151.075 27.9922 337.735 c 4
 27.9922 524.415 179.062 676 365.742 676 c 4xf0
365.742 673.5 m 4
 180.432 673.5 30.4922 523.07 30.4922 337.735 c 4
 30.4922 152.426 180.432 2.5 365.742 2.5 c 4
 457.973 2.5 541.547 39.5898 602.248 99.75 c 5
 364.867 336.74 l 5
 366.508 338.75 l 5
 366.742 338.5 l 5
 366.877 338.87 l 5
 371.117 336.115 l 5
 662.992 181.74 l 5
 687.582 228.34 701.508 281.391 701.508 337.735 c 4
 701.508 523.07 551.077 673.5 365.742 673.5 c 4
414.633 310.375 m 5
 655.742 168.75 l 6
 657.853 172.325 659.902 175.94 661.877 179.61 c 6
 414.633 310.375 l 5
419.748 301.625 m 5
 640.883 145.625 l 6
 642.992 148.615 644.982 151.66 646.992 154.75 c 6
 419.748 301.625 l 5
419.008 295.86 m 5
 625.742 125.49 l 6
 627.832 128.03 629.867 130.646 631.877 133.245 c 6
 419.008 295.86 l 5
421.992 286.995 m 5
 610.998 108.87 l 6
 612.932 110.94 614.867 113.011 616.742 115.12 c 6
 421.992 286.995 l 5
664.123 178.5 m 6
 662.133 174.766 660.002 171.136 657.873 167.5 c 6
 665.998 162.735 l 5
 665.998 177.5 l 5xf0
 664.123 178.5 l 6
649.123 153.36 m 6
 647.072 150.235 645.022 147.171 642.873 144.125 c 6
 665.998 127.735 l 5
 665.998 142.5 l 5
 649.123 153.36 l 6
633.752 131.74 m 6
 631.742 129.141 629.707 126.525 627.617 123.985 c 6
 665.998 92.3652 l 5
 665.998 107.11 l 5
 633.752 131.74 l 6
618.617 113.5 m 6
 616.742 111.391 614.807 109.301 612.873 107.25 c 6
 665.998 57.1104 l 5
 665.998 71.7402 l 5
 618.617 113.5 l 6
618.617 113.5 m 4
EndSplineSet
Validated: 524289
EndChar

StartChar: r
Encoding: 114 114 43
Width: 575
VWidth: 0
Flags: W
HStem: -1.74023 20<146.505 524.005 526.62 528.01> 15.7598 2.5<528.01 535.255> 33.75 2.5<518.495 535.255> 51.25 2.5<509.375 535.255> 69.2598 2.5<499.885 535.255> 86.7598 2.5<490.76 535.255> 104.745 2.5<481.25 535.255> 122.245 2.5<472.01 535.255> 140.255 2.5<462.5 535.255> 157.755 2.5<453.26 535.255> 175.255 2.5<444.005 535.255> 193.26 2.5<434.51 535.255> 210.76 2.5<425.255 535.255> 228.75 2.5<415.76 535.255> 246.25 2.5<406.505 535.255> 264.26 2.5<397.01 535.255> 281.76 2.5<387.755 535.255> 299.26 2.5<378.495 535.255> 317.245 2.5<369.005 535.255> 334.745 2.5<359.745 374.848> 671.76 2.5<38.75 108.495 146.505 374.848>
VStem: 108.495 38.0098<18.2598 33.75 53.75 69.2598 89.2598 104.745 124.745 140.255 160.255 175.255 195.76 210.76 231.25 246.25 266.76 281.76 301.76 317.245 337.245 671.76> 525 2.5<487.353 521.644>
LayerCount: 2
Fore
SplineSet
38.75 674.26 m 5xbffffe
 357.755 674.26 l 6
 451.425 674.26 527.5 597.675 527.5 504.51 c 4
 527.5 411.505 452.52 335.82 359.745 334.745 c 5
 367.635 319.745 l 5
 535.255 319.745 l 5
 535.255 317.245 l 5
 369.005 317.245 l 5
 377.13 301.76 l 5
 535.255 301.76 l 5
 535.255 299.26 l 5
 378.495 299.26 l 5
 386.385 284.26 l 5
 535.255 284.26 l 5
 535.255 281.76 l 5
 387.755 281.76 l 5
 395.625 266.76 l 5
 535.255 266.76 l 5
 535.255 264.26 l 5
 397.01 264.26 l 5
 405.135 248.75 l 5
 535.255 248.75 l 5
 535.255 246.25 l 5
 406.505 246.25 l 5
 414.375 231.25 l 5
 535.255 231.25 l 5
 535.255 228.75 l 5
 415.76 228.75 l 5
 423.885 213.26 l 5
 535.255 213.26 l 5
 535.255 210.76 l 5
 425.255 210.76 l 5
 433.125 195.76 l 5
 535.255 195.76 l 5
 535.255 193.26 l 5
 434.51 193.26 l 5
 442.635 177.755 l 5
 535.255 177.755 l 5
 535.255 175.255 l 5
 444.005 175.255 l 5
 451.875 160.255 l 5
 535.255 160.255 l 5
 535.255 157.755 l 5
 453.26 157.755 l 5
 461.135 142.755 l 5
 535.255 142.755 l 5
 535.255 140.255 l 5
 462.5 140.255 l 5
 470.625 124.745 l 5
 535.255 124.745 l 5
 535.255 122.245 l 5
 472.01 122.245 l 5
 479.885 107.245 l 5
 535.255 107.245 l 5
 535.255 104.745 l 5
 481.25 104.745 l 5
 489.375 89.2598 l 5
 535.255 89.2598 l 5
 535.255 86.7598 l 5
 490.76 86.7598 l 5
 498.635 71.7598 l 5
 535.255 71.7598 l 5
 535.255 69.2598 l 5
 499.885 69.2598 l 5
 508.01 53.75 l 5
 535.255 53.75 l 5
 535.255 51.25 l 5
 509.375 51.25 l 5
 517.245 36.25 l 5
 535.255 36.25 l 5
 535.255 33.75 l 5
 518.495 33.75 l 5
 526.62 18.2598 l 5xbffffe
 535.255 18.2598 l 5
 535.255 15.7598 l 5
 528.01 15.7598 l 5x7ffffe
 536.25 0 l 5
 535.255 -0.490234 l 5
 535.255 -1.74023 l 5
 38.75 -1.74023 l 5
 38.75 0.759766 l 5
 108.495 0.759766 l 5
 108.495 671.76 l 5
 38.75 671.76 l 5
 38.75 674.26 l 5xbffffe
146.505 671.76 m 5
 146.505 337.245 l 5
 357.755 337.245 l 6
 450.08 337.245 525 412.19 525 504.51 c 4
 525 596.33 450.08 671.76 357.755 671.76 c 6
 146.505 671.76 l 5
146.505 317.245 m 5
 146.505 301.76 l 5
 374.375 301.76 l 5
 366.25 317.245 l 5
 146.505 317.245 l 5
146.505 281.76 m 5
 146.505 266.76 l 5
 392.87 266.76 l 5
 385 281.76 l 5
 146.505 281.76 l 5
146.505 246.25 m 5
 146.505 231.25 l 5
 411.62 231.25 l 5
 403.75 246.25 l 5
 146.505 246.25 l 5
146.505 210.76 m 5
 146.505 195.76 l 5
 430.37 195.76 l 5
 422.5 210.76 l 5
 146.505 210.76 l 5
146.505 175.255 m 5
 146.505 160.255 l 5
 449.12 160.255 l 5
 441.25 175.255 l 5
 146.505 175.255 l 5
146.505 140.255 m 5
 146.505 124.745 l 5
 467.87 124.745 l 5
 459.745 140.255 l 5
 146.505 140.255 l 5
146.505 104.745 m 5
 146.505 89.2598 l 5
 486.62 89.2598 l 5
 478.495 104.745 l 5
 146.505 104.745 l 5
146.505 69.2598 m 5
 146.505 53.75 l 5
 505.37 53.75 l 5
 497.245 69.2598 l 5
 146.505 69.2598 l 5
146.505 33.75 m 5
 146.505 18.2598 l 5
 524.005 18.2598 l 5
 515.88 33.75 l 5
 146.505 33.75 l 5
146.505 33.75 m 4
EndSplineSet
Validated: 524289
EndChar

StartChar: s
Encoding: 115 115 44
Width: 404
VWidth: 0
Flags: W
HStem: -19.0098 2.5<193.735 210.742> -1.375 285.881<136.798 284.247> 334.995 2.5<184.258 219.748> 388.51 285.74<119.67 267.199> 689.485 2.5<193.242 210.156>
VStem: 32.498 20<451.032 504.62> 351.502 20<168.37 221.71>
LayerCount: 2
Fore
SplineSet
193.242 691.985 m 5
 271.933 691.985 335.998 627.92 335.998 548.745 c 4
 335.998 545.835 335.918 542.885 335.742 539.995 c 4
 335.918 537.101 335.998 534.19 335.998 531.245 c 4
 335.998 452.57 271.933 388.51 193.242 388.51 c 4
 123.223 388.51 65.0176 438.585 52.498 504.62 c 5
 52.5576 412.355 127.463 337.495 219.748 337.495 c 5
 219.748 336.635 l 5
 304.763 327.825 371.502 255.521 371.502 168.256 c 4
 371.502 77.5898 300.252 3.31543 210.742 -1.375 c 4
 204.178 -1.5293 196.442 -1.84473 184.258 0.990234 c 4
 127.518 11.71 82.5771 56.1455 70.998 112.865 c 5
 76.543 40.5801 137.067 -16.5098 210.742 -16.5098 c 5
 210.742 -19.0098 l 5
 132.067 -19.0098 68.0078 45.0703 68.0078 123.745 c 4
 68.0078 126.771 68.1826 129.76 68.377 132.745 c 4
 68.1826 135.715 68.0078 138.726 68.0078 141.75 c 4
 68.0078 220.42 132.067 284.506 210.742 284.506 c 4
 280.763 284.506 338.963 234.385 351.502 168.37 c 5
 351.422 260.131 276.522 334.995 184.258 334.995 c 5
 184.258 335.87 l 5
 98.8672 344.68 32.498 417.006 32.498 504.74 c 4
 32.498 595.05 103.572 669.721 193.242 674.25 c 4
 205.547 674.545 208.418 674.271 219.748 671.985 c 4
 276.248 661.32 321.172 617.24 333.008 560.87 c 5
 326.853 633 266.502 689.485 193.242 689.485 c 5
 193.242 691.985 l 5
193.242 691.985 m 4
EndSplineSet
Validated: 524289
EndChar

StartChar: t
Encoding: 116 116 45
Width: 464
VWidth: 0
Flags: W
HStem: 0 38.0107<160.244 304.244> 71.0156 73.5<195.244 268.76> 177.016 73.4951<195.244 268.76> 283.516 73.5<195.244 268.76> 390 73.0107<195.244 268.76> 496.016 73.5<195.244 268.76> 602.5 73.5156<195.244 268.76> 673.516 2.5<19.5 195.244 268.76 444.5>
VStem: 195.244 73.5156<71.0156 144.516 177.016 250.511 283.516 357.016 390 463.011 496.016 569.516 602.5 673.516>
LayerCount: 2
Fore
SplineSet
19.5 676.016 m 5xfd80
 444.5 676.016 l 5
 444.5 673.516 l 5
 268.76 673.516 l 5xfd80
 268.76 602.5 l 5
 195.244 602.5 l 5xfe80
 195.244 673.516 l 5
 19.5 673.516 l 5
 19.5 676.016 l 5xfd80
195.244 569.516 m 5
 268.76 569.516 l 5
 268.76 496.016 l 5
 195.244 496.016 l 5
 195.244 569.516 l 5
195.244 463.011 m 5
 268.76 463.011 l 5
 268.76 390 l 5
 195.244 390 l 5
 195.244 463.011 l 5
195.244 357.016 m 5
 268.76 357.016 l 5
 268.76 283.516 l 5
 195.244 283.516 l 5
 195.244 357.016 l 5
195.244 250.511 m 5
 268.76 250.511 l 5
 268.76 177.016 l 5
 195.244 177.016 l 5
 195.244 250.511 l 5
195.244 144.516 m 5
 268.76 144.516 l 5
 268.76 71.0156 l 5
 195.244 71.0156 l 5
 195.244 144.516 l 5
160.244 38.0107 m 5
 304.244 38.0107 l 5
 304.244 0 l 5
 160.244 0 l 5
 160.244 38.0107 l 5
160.244 38.0107 m 4
EndSplineSet
Validated: 524289
EndChar

StartChar: u
Encoding: 117 117 46
Width: 593
VWidth: 0
Flags: W
HStem: -8 2.5<277.486 315.569> 27.5107 2.5<274.883 318.224> 630.011 37.5<295.264 507.764>
VStem: 47.252 2.5<221.101 240.011> 82.7637 2.5<219.638 240.011> 507.764 2.5<219.638 240.011> 543.248 2.5<222.081 240.011>
LayerCount: 2
Fore
SplineSet
47.252 668.016 m 5
 85.2637 668.016 l 5
 85.2637 241.261 l 6
 85.2637 124.445 180.184 30.0107 296.514 30.0107 c 4
 413.328 30.0107 507.764 124.445 507.764 241.261 c 6
 507.764 630.011 l 5
 295.264 630.011 l 5
 295.264 667.511 l 5
 507.764 667.511 l 5
 507.764 668.016 l 5
 545.748 668.016 l 5
 545.748 241.261 l 6
 545.748 103.585 434.188 -8 296.514 -8 c 4
 159.248 -8 47.9375 102.921 47.252 240.011 c 6
 47.252 668.016 l 5
49.752 240.011 m 5
 50.4375 104.266 160.613 -5.5 296.514 -5.5 c 4
 432.408 -5.5 542.582 104.266 543.248 240.011 c 5
 510.264 240.011 l 5
 509.578 122.41 414.264 27.5107 296.514 27.5107 c 4
 179.248 27.5107 83.4219 122.41 82.7637 240.011 c 5
 49.752 240.011 l 5
49.752 240.011 m 4
EndSplineSet
Validated: 524289
EndChar

StartChar: v
Encoding: 118 118 47
Width: 618
VWidth: 0
Flags: W
HStem: 668.359 2.5<308.922 590.562>
LayerCount: 2
Fore
SplineSet
25.4277 670.859 m 5
 184.938 670.859 l 5
 184.938 669.609 l 5
 186.188 669.859 l 5
 328.182 102.87 l 5
 326.812 102.5 l 5
 325.938 101.734 l 5
 222.438 205.234 l 5
 308.922 0 l 5
 590.562 668.359 l 5
 308.922 668.359 l 5
 308.922 670.859 l 5
 592.438 670.859 l 5
 592.438 669.609 l 5
 593.688 669.12 l 5
 310.057 -3.89062 l 5
 308.922 -3.37988 l 5
 307.672 -3.89062 l 5
 24.3125 669.12 l 5
 25.4277 669.609 l 5
 25.4277 670.859 l 5
25.4277 670.859 m 4
EndSplineSet
Validated: 524289
EndChar

StartChar: w
Encoding: 119 119 48
Width: 798
VWidth: 0
Flags: W
HStem: 0 38.0107<167.242 293.117 295.992 324.117 473.373 501.617 504.367 630.248> 654.766 20G<25.7578 36.5309 202.867 213.67 583.949 594.742 761.451 772.242> 654.766 20G<25.7578 36.5309 202.867 213.67 583.949 594.742 761.451 772.242>
LayerCount: 2
Fore
SplineSet
28.1172 674.766 m 5xc0
 295.992 38.0107 l 5
 324.117 38.0107 l 5
 397.377 211.875 l 5
 202.867 673.75 l 5
 205.248 674.766 l 5
 398.742 215.255 l 5
 592.377 674.766 l 5
 594.742 673.75 l 5
 400.133 211.875 l 5
 473.373 38.0107 l 5
 501.617 38.0107 l 5
 769.877 674.766 l 5
 772.242 673.75 l 5
 504.367 38.0107 l 5
 630.248 38.0107 l 5
 630.248 0 l 5
 167.242 0 l 5
 167.242 38.0107 l 5
 293.117 38.0107 l 5
 25.7578 673.75 l 5
 28.1172 674.766 l 5xc0
28.1172 674.766 m 4
EndSplineSet
Validated: 524289
EndChar

StartChar: x
Encoding: 120 120 49
Width: 570
VWidth: 0
Flags: W
HStem: -1.875 21G<36.6328 72.3838 497.586 533.252> 652.985 19.2598G<35.752 55.1706 71.377 90.4293 106.867 125.453 142.258 160.289 177.742 194.81 213.252 228.626 248.508 260.849 283.992 286.492 309.397 321.377 341.355 356.867 375.26 392.258 409.78 427.742 444.599 463.252 479.728 498.742 514.772 534.248>
VStem: 283.992 2.5<-0.764648 138.61 283.375 388.24 392.125 423.75 427.615 459.235 463.24 494.745 498.75 530.37 534.49 565.875 570.25 600.875 606.5 672.245>
LayerCount: 2
Fore
SplineSet
37.627 672.985 m 5
 283.992 392.125 l 5
 283.992 423.865 l 5
 71.377 671.5 l 5
 73.252 672.985 l 5
 283.992 427.615 l 5
 283.992 459.49 l 5
 106.867 671.5 l 5
 108.742 672.985 l 5
 283.992 463.24 l 5
 283.992 494.86 l 5
 142.258 671.5 l 5
 144.248 672.985 l 5
 283.992 498.75 l 5
 283.992 530.37 l 5
 177.742 671.5 l 5
 179.758 672.985 l 5
 283.992 534.49 l 5
 283.992 565.875 l 5
 213.252 671.62 l 5
 215.242 672.985 l 5
 283.992 570.25 l 5
 283.992 601.11 l 5
 248.508 671.735 l 5
 250.867 672.87 l 5
 283.992 606.5 l 5
 283.992 672.245 l 5
 286.492 672.245 l 5
 286.492 606.365 l 5
 319.248 672.87 l 5
 321.377 671.735 l 5
 286.492 600.875 l 5
 286.492 570.25 l 5
 354.617 672.985 l 5
 356.867 671.62 l 5
 286.492 565.875 l 5
 286.492 534.49 l 5
 390.242 672.985 l 5
 392.258 671.5 l 5
 286.492 530.37 l 5
 286.492 498.61 l 5
 425.752 672.985 l 5
 427.742 671.5 l 5
 286.492 494.745 l 5
 286.492 462.985 l 5
 461.242 672.985 l 5
 463.252 671.5 l 5
 286.492 459.235 l 5
 286.492 427.5 l 5
 496.867 672.985 l 5
 498.742 671.5 l 5
 286.492 423.75 l 5
 286.492 391.875 l 5
 532.258 672.985 l 5
 534.248 671.5 l 5
 286.492 388.24 l 5
 286.492 283.375 l 5
 534.248 0 l 5
 533.252 -0.764648 l 5
 532.627 -1.875 l 5
 286.492 138.61 l 5
 286.492 -0.764648 l 5
 283.992 -0.764648 l 5
 283.992 138.61 l 5
 37.2578 -1.875 l 5
 36.6328 -0.625 l 5
 35.752 0 l 5
 36.0078 0.370117 l 5
 36.123 0.485352 l 5
 283.992 283.24 l 5
 283.992 388.375 l 5
 35.752 671.5 l 5
 37.627 672.985 l 5
37.627 672.985 m 4
EndSplineSet
Validated: 524289
EndChar

StartChar: y
Encoding: 121 121 50
Width: 532
VWidth: 0
Flags: W
HStem: 0 21G<264.488 266.988> 653.89 20G<18.002 43.6066 513.373 514.367>
VStem: 264.488 2.5<0 283.515 394.63 459.63>
LayerCount: 2
Fore
SplineSet
265.873 494.26 m 0,0,-1
18.4863 673.89 m 1,1,-1
 195.113 533.265 l 1,2,-1
 264.992 602.755 l 1,3,-1
 265.738 602.015 l 1,4,-1
 266.611 602.755 l 1,5,-1
 336.867 533.125 l 1,6,-1
 513.373 673.75 l 1,7,-1
 513.373 673.89 l 1,8,-1
 514.367 673.01 l 1,9,-1
 515.113 672.265 l 1,10,-1
 515.248 672.265 l 1,11,-1
 515.113 672.015 l 1,12,-1
 514.736 671.76 l 1,13,-1
 266.611 388.75 l 1,14,-1
 265.986 389.26 l 1,15,-1
 265.738 389.515 l 1,16,-1
 265.617 389.515 l 1,17,-1
 264.736 388.75 l 1,18,-1
 16.752 672.265 l 1,19,-1
 18.002 673.265 l 1,20,-1
 18.4863 673.89 l 1,1,-1
34.4883 658.01 m 1,21,-1
 195.248 497.89 l 1,22,-1
 264.992 567.755 l 1,23,-1
 265.738 567.015 l 1,24,-1
 266.611 567.755 l 1,25,-1
 336.752 497.755 l 1,26,-1
 497.613 658.01 l 1,27,-1
 337.613 530.51 l 1,28,-1
 336.752 531.505 l 1,29,-1
 335.873 530.625 l 1,30,-1
 265.873 600.39 l 1,31,-1
 196.242 530.625 l 1,32,-1
 195.248 531.505 l 1,33,-1
 194.488 530.51 l 1,34,-1
 34.4883 658.01 l 1,21,-1
265.873 529.765 m 1,35,-1
 215.113 478.635 l 1,36,-1
 239.111 470.765 l 1,37,-1
 264.992 496.875 l 1,38,-1
 265.738 496.015 l 1,39,-1
 266.611 496.875 l 1,40,-1
 292.748 470.765 l 1,41,-1
 316.988 478.635 l 1,42,-1
 265.873 529.765 l 1,35,-1
239.623 467.89 m 1,43,-1
 232.123 460.255 l 1,44,-1
 264.488 394.63 l 1,45,-1
 264.488 459.63 l 1,46,-1
 239.623 467.89 l 1,43,-1
292.236 467.89 m 1,47,-1
 266.988 459.63 l 1,48,-1
 266.988 394.63 l 1,49,-1
 299.736 460.39 l 1,50,-1
 292.236 467.89 l 1,47,-1
264.488 283.515 m 1,51,-1
 266.988 283.515 l 1,52,-1
 266.988 0 l 1,53,-1
 264.488 0 l 1,54,-1
 264.488 283.515 l 1,51,-1
264.488 283.515 m 0,55,-1
EndSplineSet
Validated: 524289
EndChar

StartChar: z
Encoding: 122 122 51
Width: 672
VWidth: 0
Flags: W
HStem: 0 38.0098<175.49 638.5> 0 2.5<109.125 175.49> 70.5098 38.0059<281.484 567.484> 141.505 38.0107<352.485 567.484> 212.5 38.0098<423.5 567.484> 283.516 37.9893<175.49 437.484 441.234 482.484 486.115 567.484> 354.005 38.0107<104.495 185.745 189.495 230.61 234.495 496.996> 425 38.0098<104.495 248.984> 496.016 37.9893<104.495 319.495> 567.016 37.5<104.495 390.49> 637.5 38.0098<33.5 496.996> 673.01 2.5<496.996 562.99>
LayerCount: 2
Fore
SplineSet
281.484 108.516 m 1x3fc0
 567.484 108.516 l 1
 567.484 70.5098 l 1
 281.484 70.5098 l 1
 281.484 108.516 l 1x3fc0
281.484 108.516 m 0
352.485 179.516 m 1
 567.484 179.516 l 1
 567.484 141.505 l 1
 352.485 141.505 l 1
 352.485 179.516 l 1
352.485 179.516 m 0
423.5 250.51 m 1
 567.484 250.51 l 1
 567.484 212.5 l 1
 423.5 212.5 l 1
 423.5 250.51 l 1
423.5 250.51 m 0
104.495 463.01 m 1
 248.984 463.01 l 1
 248.984 425 l 1
 104.495 425 l 1
 104.495 463.01 l 1
104.495 463.01 m 0
104.495 534.005 m 1
 319.495 534.005 l 1
 319.495 496.016 l 1
 104.495 496.016 l 1
 104.495 534.005 l 1
104.495 534.005 m 0
104.495 604.516 m 1
 390.49 604.516 l 1
 390.49 567.016 l 1
 104.495 567.016 l 1
 104.495 604.516 l 1
104.495 604.516 m 0
33.5 675.51 m 1x3fe0
 566.234 675.51 l 1
 566.234 674.26 l 1
 566.996 673.266 l 1
 234.495 392.016 l 1
 496.996 392.016 l 1
 496.996 354.005 l 1
 189.495 354.005 l 1
 106.484 283.75 l 1
 104.985 285.766 l 1
 185.745 354.005 l 1
 104.495 354.005 l 1
 104.495 392.016 l 1
 230.61 392.016 l 1
 562.99 673.01 l 1
 496.996 673.01 l 1x3fd0
 496.996 637.5 l 1
 33.5 637.5 l 1
 33.5 675.51 l 1x3fe0
565.49 391.76 m 1
 566.996 389.885 l 1
 486.115 321.505 l 1
 567.484 321.505 l 1
 567.484 283.516 l 1
 441.234 283.516 l 1
 109.125 2.5 l 1
 175.49 2.5 l 1x7fc0
 175.49 38.0098 l 1
 638.5 38.0098 l 1
 638.5 0 l 1xbfc0
 105.745 0 l 1x7fc0
 105.745 1.25 l 1
 104.985 2.26562 l 1
 437.484 283.516 l 1
 175.49 283.516 l 1
 175.49 321.505 l 1
 482.484 321.505 l 1
 565.49 391.76 l 1
565.49 391.76 m 0
EndSplineSet
Validated: 524289
EndChar

